<svg width="18" height="20" viewBox="0 0 18 20" fill="none" xmlns="http://www.w3.org/2000/svg">
<path d="M4.50157 0H2.25078C1.00771 0 0 0.994921 0 2.22222V17.7778C0 19.0051 1.00771 20 2.25078 20H4.50157C5.74465 20 6.75236 19.0051 6.75236 17.7778V2.22222C6.75236 0.994921 5.74465 0 4.50157 0Z" fill="white"/>
<path d="M15.7496 0H13.4988C12.2558 0 11.248 0.994921 11.248 2.22222V17.7778C11.248 19.0051 12.2558 20 13.4988 20H15.7496C16.9927 20 18.0004 19.0051 18.0004 17.7778V2.22222C18.0004 0.994921 16.9927 0 15.7496 0Z" fill="white"/>
</svg>
