<svg xmlns="http://www.w3.org/2000/svg" style="display: none;">
<!-- home-icon -->
<symbol id="home-icon" viewBox="0 0 20 20" fill="none">
  <path d="M2.5 8.33333C2.49994 8.09089 2.55278 7.85135 2.65482 7.63143C2.75687 7.41151 2.90566 7.2165 3.09083 7.06L8.92417 2.06083C9.22499 1.80659 9.60613 1.6671 10 1.6671C10.3939 1.6671 10.775 1.80659 11.0758 2.06083L16.9092 7.06C17.0943 7.2165 17.2431 7.41151 17.3452 7.63143C17.4472 7.85135 17.5001 8.09089 17.5 8.33333V15.8333C17.5 16.2754 17.3244 16.6993 17.0118 17.0118C16.6993 17.3244 16.2754 17.5 15.8333 17.5H4.16667C3.72464 17.5 3.30072 17.3244 2.98816 17.0118C2.67559 16.6993 2.5 16.2754 2.5 15.8333V8.33333Z"
        stroke="currentColor" stroke-width="2" stroke-linecap="round" stroke-linejoin="round"/>
  <path d="M12.5 17.5V10.8333C12.5 10.6123 12.4122 10.4004 12.2559 10.2441C12.0996 10.0878 11.8877 10 11.6667 10H8.33333C8.11232 10 7.90036 10.0878 7.74408 10.2441C7.5878 10.4004 7.5 10.6123 7.5 10.8333V17.5"
        stroke="currentColor" stroke-width="2" stroke-linecap="round" stroke-linejoin="round" stroke-dasharray="1.17 1.17"/>
</symbol>
<!-- profile-card-icon -->
<symbol id="profile-card-icon" viewBox="0 0 20 20" fill="none">
  <path d="M13.3334 8.33334H15" 
        stroke="currentColor" stroke-width="2" stroke-linecap="round" stroke-linejoin="round" stroke-dasharray="1.17 1.17"/>
  <path d="M13.3334 11.6667H15" 
        stroke="currentColor" stroke-width="2" stroke-linecap="round" stroke-linejoin="round" stroke-dasharray="1.17 1.17"/>
  <path d="M5.14172 12.5C5.31351 12.0117 5.63264 11.5887 6.05507 11.2895C6.4775 10.9903 6.9824 10.8296 7.50006 10.8296C8.01772 10.8296 8.52261 10.9903 8.94504 11.2895C9.36747 11.5887 9.68661 12.0117 9.85839 12.5" 
        stroke="currentColor" stroke-width="2" stroke-linecap="round" stroke-linejoin="round" stroke-dasharray="1.17 1.17"/>
  <path d="M7.50004 10.8333C8.42052 10.8333 9.16671 10.0871 9.16671 9.16667C9.16671 8.24619 8.42052 7.5 7.50004 7.5C6.57957 7.5 5.83337 8.24619 5.83337 9.16667C5.83337 10.0871 6.57957 10.8333 7.50004 10.8333Z" 
        stroke="currentColor" stroke-width="2" stroke-linecap="round" stroke-linejoin="round" stroke-dasharray="1.17 1.17"/>
  <path d="M16.6666 4.16666H3.33329C2.41282 4.16666 1.66663 4.91286 1.66663 5.83333V14.1667C1.66663 15.0871 2.41282 15.8333 3.33329 15.8333H16.6666C17.5871 15.8333 18.3333 15.0871 18.3333 14.1667V5.83333C18.3333 4.91286 17.5871 4.16666 16.6666 4.16666Z" 
        stroke="currentColor" stroke-width="2" stroke-linecap="round" stroke-linejoin="round"/>
</symbol>
<!-- projects-icon -->
<symbol id="projects-icon" viewBox="0 0 20 20" fill="none">
  <path d="M16.6667 14.1667C17.1087 14.1667 17.5326 13.9911 17.8452 13.6785C18.1577 13.366 18.3333 12.942 18.3333 12.5V7.5C18.3333 7.05797 18.1577 6.63405 17.8452 6.32149C17.5326 6.00893 17.1087 5.83334 16.6667 5.83334H13.4167C13.1379 5.83607 12.863 5.76885 12.6169 5.63782C12.3709 5.50679 12.1616 5.31615 12.0083 5.08334L11.3333 4.08334C11.1816 3.85289 10.975 3.66374 10.7321 3.53283C10.4892 3.40193 10.2176 3.33338 9.94167 3.33334H6.66667C6.22464 3.33334 5.80072 3.50893 5.48816 3.82149C5.17559 4.13405 5 4.55798 5 5V12.5C5 12.942 5.17559 13.366 5.48816 13.6785C5.80072 13.9911 6.22464 14.1667 6.66667 14.1667H16.6667Z" 
        stroke="currentColor" stroke-width="2" stroke-linecap="round" stroke-linejoin="round"/>
  <path d="M1.66663 6.66666V15.8333C1.66663 16.2754 1.84222 16.6993 2.15478 17.0118C2.46734 17.3244 2.89127 17.5 3.33329 17.5H15" 
        stroke="currentColor" stroke-width="2" stroke-linecap="round" stroke-linejoin="round"/>
</symbol>
<!-- gallery-icon -->
<symbol id="gallery-icon" viewBox="0 0 20 20" fill="none">
  <path d="M8.33333 17.5V6.66667C8.33333 6.44566 8.24554 6.23369 8.08926 6.07741C7.93298 5.92113 7.72101 5.83334 7.5 5.83334H3.33333C3.11232 5.83334 2.90036 5.92113 2.74408 6.07741C2.5878 6.23369 2.5 6.44566 2.5 6.66667V16.6667C2.5 16.8877 2.5878 17.0996 2.74408 17.2559C2.90036 17.4122 3.11232 17.5 3.33333 17.5H13.3333C13.5543 17.5 13.7663 17.4122 13.9226 17.2559C14.0789 17.0996 14.1667 16.8877 14.1667 16.6667V12.5C14.1667 12.279 14.0789 12.067 13.9226 11.9107C13.7663 11.7545 13.5543 11.6667 13.3333 11.6667H2.5" 
        stroke="currentColor" stroke-width="2" stroke-linecap="round" stroke-linejoin="round"/>
  <path d="M11.6666 2.5H17.5V8.33333H11.6666V2.5Z" 
        stroke="currentColor" stroke-width="2" stroke-linecap="round" stroke-linejoin="round"/>
</symbol>
<!-- changelog-icon -->
<symbol id="changelog-icon" viewBox="0 0 20 20" fill="none">
    <path d="M2.5 10C2.5 11.4834 2.93987 12.9334 3.76398 14.1668C4.58809 15.4001 5.75943 16.3614 7.12987 16.9291C8.50032 17.4968 10.0083 17.6453 11.4632 17.3559C12.918 17.0665 14.2544 16.3522 15.3033 15.3033C16.3522 14.2544 17.0665 12.918 17.3559 11.4632C17.6453 10.0083 17.4968 8.50032 16.9291 7.12987C16.3614 5.75943 15.4001 4.58809 14.1668 3.76398C12.9334 2.93987 11.4834 2.5 10 2.5C7.90329 2.50789 5.89081 3.32602 4.38333 4.78333L2.5 6.66667" stroke="currentColor" stroke-width="2" stroke-linecap="round" stroke-linejoin="round"/>
    <path d="M2.5 2.5V6.66667H6.66667" stroke="currentColor" stroke-width="2" stroke-linecap="round" stroke-linejoin="round"/>
    <path d="M10 10V5.83334" stroke="currentColor" stroke-width="2" stroke-linecap="round" stroke-linejoin="round"/>
    <path d="M10 10L13.3333 11.6667" stroke="currentColor" stroke-width="2" stroke-linecap="round" stroke-linejoin="round"/>
</symbol>
<!-- download-icon -->
<symbol id="download-icon" viewBox="0 0 20 20" fill="none">
  <path d="M17.5 12.5V15.8333C17.5 16.2754 17.3244 16.6993 17.0118 17.0118C16.6993 17.3244 16.2754 17.5 15.8333 17.5H4.16667C3.72464 17.5 3.30072 17.3244 2.98816 17.0118C2.67559 16.6993 2.5 16.2754 2.5 15.8333V12.5"
        stroke="currentColor" stroke-width="2" stroke-linecap="round" stroke-linejoin="round"/>
  <path d="M5.83337 8.33334L10 12.5L14.1667 8.33334" 
        stroke="currentColor" stroke-width="2" stroke-linecap="round" stroke-linejoin="round"/>
  <path d="M10 12.5V2.5" 
        stroke="currentColor" stroke-width="2" stroke-linecap="round" stroke-linejoin="round"/>
</symbol>
<!-- eye-icon -->
<symbol id="eye-icon" viewBox="0 0 20 20" fill="none">
  <path d="M1.93192 9.16872C4.09518 5.49391 7.099 3.76686 10 3.76688C12.901 3.7669 15.9048 5.49401 18.0681 9.16884L19.5263 8.24962C17.117 4.1568 13.6099 2.00004 10 2C6.39014 1.99998 2.88307 4.15669 0.473736 8.24952L1.93192 9.16872ZM0.473736 11.7504C2.88307 15.8432 6.39013 18 10 18C13.6099 18 17.117 15.8433 19.5263 11.7505L18.0681 10.8313C15.9048 14.5061 12.901 16.2331 10 16.2331C7.09901 16.2331 4.09518 14.5061 1.93192 10.8312L0.473736 11.7504ZM0.473736 8.24952C-0.157912 9.32252 -0.157912 10.6773 0.473736 11.7504L1.93192 10.8312C1.63261 10.3228 1.63261 9.67718 1.93192 9.16872L0.473736 8.24952ZM18.0681 9.16884C18.3674 9.67729 18.3674 10.3229 18.0681 10.8313L19.5263 11.7505C20.1579 10.6775 20.1579 9.32264 19.5263 8.24962L18.0681 9.16884ZM12.2292 10C12.2292 11.2741 11.2311 12.3068 10 12.3068V14.0736C12.1742 14.0736 13.9366 12.2499 13.9366 10H12.2292ZM10 12.3068C8.76888 12.3068 7.77086 11.2741 7.77086 10H6.06343C6.06343 12.2499 7.8259 14.0736 10 14.0736V12.3068ZM7.77086 10C7.77086 8.72606 8.76888 7.69329 10 7.69329V5.92641C7.8259 5.92641 6.06343 7.75024 6.06343 10H7.77086ZM10 7.69329C11.2311 7.69329 12.2292 8.72606 12.2292 10H13.9366C13.9366 7.75024 12.1742 5.92641 10 5.92641V7.69329Z"
        fill="white" />     
</symbol>
<!-- dark-theme-icon -->
<symbol id="dark-theme-icon" viewBox="0 0 20 20" fill="none">
  <path d="M18 10.7207C17.8599 12.237 17.2908 13.682 16.3594 14.8867C15.428 16.0914 14.1728 17.0059 12.7406 17.5232C11.3084 18.0405 9.7585 18.1392 8.27225 17.8078C6.786 17.4764 5.42487 16.7286 4.34813 15.6519C3.27138 14.5751 2.52356 13.214 2.19216 11.7277C1.86076 10.2415 1.9595 8.6916 2.47681 7.25942C2.99413 5.82724 3.90862 4.572 5.1133 3.64059C6.31797 2.70918 7.76299 2.14012 9.27928 2C8.39154 3.20101 7.96435 4.68075 8.07542 6.1701C8.18648 7.65945 8.82842 9.05947 9.88447 10.1155C10.9405 11.1716 12.3405 11.8135 13.8299 11.9246C15.3192 12.0356 16.799 11.6085 18 10.7207Z" 
        stroke="currentColor" stroke-width="2" stroke-linecap="round" stroke-linejoin="bevel"/>
</symbol>
<!-- light-theme-icon -->
<symbol id="light-theme-icon" viewBox="0 0 20 20" fill="none">
  <path d="M10 1V4M10 19V16M19 10H16M1 10H4M16.3642 16.3642L14.2426 14.2426M3.63624 3.63624L5.75736 5.75736M3.63584 16.3642L5.75736 14.2426M16.3638 3.63624L14.2426 5.75736" 
        stroke="currentColor" stroke-width="2"/>
  <path d="M10 13C11.6569 13 13 11.6569 13 10C13 8.34315 11.6569 7 10 7C8.34315 7 7 8.34315 7 10C7 11.6569 8.34315 13 10 13Z" 
        stroke="currentColor" stroke-width="2" stroke-linecap="square"/>
</symbol>
<!-- system-theme-icon -->
<symbol id="system-theme-icon" viewBox="0 0 20 20" fill="none">
  <path d="M10 18C14.4183 18 18 14.4183 18 10C18 5.58172 14.4183 2 10 2M10 18C5.58172 18 2 14.4183 2 10C2 5.58172 5.58172 2 10 2M10 18V2" 
        stroke="currentColor" stroke-width="2"/>
</symbol>
<!-- cross-icon -->
<symbol id="cross-icon" viewBox="0 0 20 20" fill="none">
  <path d="M3.70703 3.70703L16.2963 16.2963M16.2963 3.70703L3.70703 16.2963" 
        stroke="#747474" stroke-width="2"/>
</symbol>
<!-- arrow-icon -->
<symbol id="arrow-icon" viewBox="0 0 24 14" fill="none">
  <path d="M2.35715 11.4531C6.02749 7.97391 8.08532 6.02326 11.7557 2.54403L21.1543 11.4531" stroke="currentColor" stroke-width="3" stroke-linecap="round" stroke-linejoin="round"/>
</symbol>
<!-- left-arrow-icon -->
<symbol id="left-arrow-icon" viewBox="0 0 20 20" fill="none">
  <path d="M12.5 15L7.5 10L12.5 5" 
        stroke="currentColor" stroke-width="2" 
        stroke-linecap="round" stroke-linejoin="round"/>
</symbol>
<!-- js-lang-icon -->
<symbol id="js-lang-icon" viewBox="0 0 16 16" fill="none">
  <rect width="16" height="16" fill="#F7DF1E"/>
  <path d="M11.5779 13.1989C11.853 13.6206 12.2108 13.9306 12.8438 13.9306C13.3755 13.9306 13.7152 13.6811 13.7152 13.3363C13.7152 12.9231 13.3662 12.7768 12.7809 12.5364L12.4601 12.4072C11.5341 12.0367 10.9189 11.5727 10.9189 10.5916C10.9189 9.68795 11.6522 9 12.7983 9C13.6142 9 14.2008 9.26663 14.6235 9.96475L13.6242 10.5672C13.4042 10.1968 13.1668 10.0508 12.7983 10.0508C12.4224 10.0508 12.1842 10.2747 12.1842 10.5672C12.1842 10.9287 12.4226 11.075 12.9732 11.2989L13.294 11.428C14.3844 11.867 15 12.3146 15 13.3208C15 14.4057 14.0924 15 12.8735 15C11.6817 15 10.9118 14.4667 10.535 13.7678L11.5779 13.1989ZM7.04461 13.3033C7.2462 13.6392 7.42959 13.9231 7.87049 13.9231C8.29211 13.9231 8.55808 13.7682 8.55808 13.1659V9.06879H9.84135V13.1822C9.84135 14.4299 9.06228 14.9978 7.92512 14.9978C6.89764 14.9978 6.30261 14.4985 6 13.8971L7.04461 13.3033Z" fill="black"/>
</symbol>
<!-- close-file-tab-icon -->
<symbol id="close-file-tab-icon" viewBox="0 0 8 10" fill="none">
  <path fill-rule="evenodd" clip-rule="evenodd" d="M4.53909 5.6643L7.96491 9.09105L8.63015 8.42675L5.2034 4.99999L8.63015 1.57418L7.96585 0.908936L4.53909 4.33569L1.11328 0.908936L0.448975 1.57418L3.87479 4.99999L0.448975 8.42581L1.11328 9.09105L4.53909 5.6643Z" fill="white"/>
</symbol>
<!-- split-editor-icon -->
<symbol id="split-editor-icon" viewBox="0 0 13 13" fill="none">
  <path d="M11.2753 0H0.939609L0 0.939609V11.2753L0.939609 12.2149H11.2753L12.2149 11.2753V0.939609L11.2753 0ZM5.63765 11.2753H0.939609V0.939609H5.63765V11.2753ZM11.2753 11.2753H6.57726V0.939609H11.2753V11.2753Z" fill="white"/>
</symbol>
<!-- more-actions-icon -->
<symbol id="more-actions-icon" viewBox="0 0 12 2" fill="none">
  <path d="M1.87922 0.939609C1.87922 1.18881 1.78022 1.4278 1.60401 1.60401C1.4278 1.78022 1.18881 1.87922 0.939609 1.87922C0.690409 1.87922 0.451416 1.78022 0.275205 1.60401C0.0989942 1.4278 0 1.18881 0 0.939609C0 0.690409 0.0989942 0.451416 0.275205 0.275205C0.451416 0.0989944 0.690409 0 0.939609 0C1.18881 0 1.4278 0.0989944 1.60401 0.275205C1.78022 0.451416 1.87922 0.690409 1.87922 0.939609ZM6.57726 0.939609C6.57726 1.18881 6.47827 1.4278 6.30206 1.60401C6.12585 1.78022 5.88685 1.87922 5.63765 1.87922C5.38845 1.87922 5.14946 1.78022 4.97325 1.60401C4.79704 1.4278 4.69804 1.18881 4.69804 0.939609C4.69804 0.690409 4.79704 0.451416 4.97325 0.275205C5.14946 0.0989944 5.38845 0 5.63765 0C5.88685 0 6.12585 0.0989944 6.30206 0.275205C6.47827 0.451416 6.57726 0.690409 6.57726 0.939609ZM11.2753 0.939609C11.2753 1.18881 11.1763 1.4278 11.0001 1.60401C10.8239 1.78022 10.5849 1.87922 10.3357 1.87922C10.0865 1.87922 9.84751 1.78022 9.6713 1.60401C9.49508 1.4278 9.39609 1.18881 9.39609 0.939609C9.39609 0.690409 9.49508 0.451416 9.6713 0.275205C9.84751 0.0989944 10.0865 0 10.3357 0C10.5849 0 10.8239 0.0989944 11.0001 0.275205C11.1763 0.451416 11.2753 0.690409 11.2753 0.939609Z" fill="white"/>
</symbol>
<!-- explicit-icon -->
<symbol id="explicit-icon" viewBox="0 0 12 12" fill="none">
  <path fill-rule="evenodd" clip-rule="evenodd" d="M1.8 0H10.2C11.1941 0 12 0.805888 12 1.8V10.2C12 11.1941 11.1941 12 10.2 12H1.8C0.805888 12 0 11.1941 0 10.2V1.8C0 0.805888 0.805888 0 1.8 0ZM8.22047 9.32484H3.78047V2.66484H8.22047V3.81408H5.18306V5.42023H8.04863V6.49099H5.18306V8.17561H8.22047V9.32484Z" fill="white"/>
</symbol>
<!-- previous-icon -->
<symbol id="previous-icon" viewBox="0 0 36 36" fill="none">
  <path d="M27 25.3061C27 26.0673 26.1834 26.5494 25.5169 26.1816L11.607 18.5066C10.9029 18.1182 10.922 17.0998 11.6402 16.738L25.5501 9.73038C26.2152 9.39533 27 9.87875 27 10.6235L27 25.3061Z" fill="white"/>
  <rect x="11.8418" y="26.9999" width="2.84212" height="18" rx="1" transform="rotate(-180 11.8418 26.9999)" fill="white"/>
</symbol>
<!-- next-icon -->
<symbol id="next-icon" viewBox="0 0 36 36" fill="none">
  <path d="M9 10.6939C9 9.93268 9.81662 9.45058 10.4831 9.81832L24.393 17.4933C25.0971 17.8818 25.078 18.9002 24.3598 19.262L10.4499 26.2696C9.78484 26.6046 9 26.1212 9 25.3765V10.6939Z" fill="white"/>
  <rect x="24.1582" y="9" width="2.84212" height="18" rx="1" fill="white"/>
</symbol>
<!-- play-icon -->
<symbol id="play-icon" viewBox="0 0 36 36" fill="none">
  <path d="M11 9.73269C11 8.96275 11.8336 8.48164 12.5003 8.86683L27.4409 17.4992C28.1203 17.8917 28.1035 18.8781 27.4112 19.2474L12.4706 27.2157C11.8045 27.5709 11 27.0883 11 26.3333V9.73269Z" fill="white"/>
</symbol>
<!-- pause-icon -->
<symbol id="pause-icon" viewBox="0 0 36 36" fill="none">
  <rect x="11" y="7" width="5" height="22" rx="1" fill="white"/>
  <rect x="20" y="7" width="5" height="22" rx="1" fill="white"/>
</symbol>
<!-- external-link-icon -->
<symbol id="external-link-icon" viewBox="0 0 20 20">
  <path d="M14.3349 13.3301V6.60645L5.47065 15.4707C5.21095 15.7304 4.78895 15.7304 4.52925 15.4707C4.26955 15.211 4.26955 14.789 4.52925 14.5293L13.3935 5.66504H6.66011C6.29284 5.66504 5.99507 5.36727 5.99507 5C5.99507 4.63273 6.29284 4.33496 6.66011 4.33496H14.9999L15.1337 4.34863C15.4369 4.41057 15.665 4.67857 15.665 5V13.3301C15.6649 13.6973 15.3672 13.9951 14.9999 13.9951C14.6327 13.9951 14.335 13.6973 14.3349 13.3301Z" fill="currentColor"/>
</symbol>
<!-- claude-ai-icon -->
<symbol id="claude-ai-icon" viewBox="0 0 12 12">
  <g clip-path="url(#clip0_386_169)">
  <path d="M11.52 4.75247L11.94 4.9901V5.16831L11.82 5.58416L6.72 6.77227L6.24048 5.59257L11.52 4.75247Z" fill="#D97757"/>
  <path d="M9.61227 1.25826L10.1995 1.38025L10.3554 1.57045L10.504 2.02622L10.4424 2.31692L7.01988 6.9505L5.87988 5.82178L9.03598 1.72126L9.61227 1.25826Z" fill="#D97757"/>
  <path d="M6.65996 0.534651L7.02 0.297028L7.31996 0.415839L7.61996 0.831681L6.79807 5.72222L6.24 5.34653L6 4.69307L6.41998 1.0099L6.65996 0.534651Z" fill="#D97757"/>
  <path d="M2.81104 0.612933L3.1809 0.145158L3.4221 0.090683L3.90076 0.159903L4.13698 0.342992L5.85842 4.12161L6.48107 5.91693L5.75254 6.31795L2.97611 1.32934L2.81104 0.612933Z" fill="#D97757"/>
  <path d="M1.01979 3.20815L0.899902 2.73269L1.25995 2.31685L1.67995 2.37625H1.79995L4.31991 4.21783L5.09991 4.81189L6.17991 5.64357L5.57991 6.65347L5.03994 6.23763L4.67993 5.88119L1.19991 3.44556L1.01979 3.20815Z" fill="#D97757"/>
  <path d="M0.299916 6.29704L0.0283203 6.00001L0.0283563 5.73576L0.299916 5.64357L3.35988 5.82179L6.35988 6.05941L6.2625 6.65088L0.53988 6.35644L0.299916 6.29704Z" fill="#D97757"/>
  <path d="M2.10001 9.38927H1.50005L1.26147 9.11725V8.79207L2.28005 8.0792L6.42097 5.46935L6.84005 6.17821L2.10001 9.38927Z" fill="#D97757"/>
  <path d="M3.24015 11.0495L3.00014 11.1089L2.64014 10.9307L2.70015 10.6337L6.24014 6L6.72015 6.65345L4.08014 10.099L3.24015 11.0495Z" fill="#D97757"/>
  <path d="M6.23995 11.6436L6.05999 11.8812L5.69999 12L5.39998 11.7624L5.21997 11.4059L6.12001 6.59406L6.65998 6.65346L6.23995 11.6436Z" fill="#D97757"/>
  <path d="M9.3001 10.3366V10.8118L9.24009 10.9901L9.00006 11.1089L8.58009 11.0535L5.69604 6.80366L6.83999 5.94061L7.79994 7.66341L7.8901 8.28709L9.3001 10.3366Z" fill="#D97757"/>
  <path d="M10.6801 9.62365L10.7401 9.92068L10.5601 10.1583L10.3801 10.0989L9.3601 9.38603L7.8001 8.01969L6.6001 7.18801L6.96001 6.0594L7.56 6.41585L7.9201 7.0692L10.6801 9.62365Z" fill="#D97757"/>
  <path d="M9.9001 6.59406L11.4001 6.71287L11.7601 6.9505L12.0001 7.30693V7.56341L11.3401 7.84159L7.98012 7.0099L6.6001 6.9505L6.96006 5.70297L7.92012 6.41584L9.9001 6.59406Z" fill="#D97757"/>
  </g>
  <defs>
  <clipPath id="clip0_386_169">
  <rect width="12" height="12" fill="white"/>
  </clipPath>
  </defs>
</symbol>
<!-- reset-location-icon -->
<symbol id="reset-location-icon" viewBox="0 0 24 24" fill="none">
  <path d="M12 14.625C13.4497 14.625 14.625 13.4497 14.625 12C14.625 10.5503 13.4497 9.375 12 9.375C10.5503 9.375 9.375 10.5503 9.375 12C9.375 13.4497 10.5503 14.625 12 14.625Z" stroke="white" stroke-width="2" stroke-linecap="round" stroke-linejoin="round"/>
  <path d="M12 19.875C16.3492 19.875 19.875 16.3492 19.875 12C19.875 7.65076 16.3492 4.125 12 4.125C7.65076 4.125 4.125 7.65076 4.125 12C4.125 16.3492 7.65076 19.875 12 19.875Z" stroke="white" stroke-width="2" stroke-linecap="round" stroke-linejoin="round"/>
  <path d="M12 4.125V1.5" stroke="white" stroke-width="2" stroke-linecap="round" stroke-linejoin="round"/>
  <path d="M19.875 12H22.5" stroke="white" stroke-width="2" stroke-linecap="round" stroke-linejoin="round"/>
  <path d="M12 19.875V22.5" stroke="white" stroke-width="2" stroke-linecap="round" stroke-linejoin="round"/>
  <path d="M4.125 12H1.5" stroke="white" stroke-width="2" stroke-linecap="round" stroke-linejoin="round"/>
</symbol>
<!-- work-experience-icon -->
<symbol id="work-experience-icon" viewBox="0 0 40 40" fill="none">
  <path d="M5 20H35M11.6667 20V23.3333M28.3333 20V23.3333M13.3333 11.6667H13C10.1997 11.6667 8.7996 11.6667 7.73005 12.2116C6.78923 12.691 6.02433 13.4559 5.54497 14.3967C5 15.4663 5 16.8663 5 19.6667V27C5 29.8003 5 31.2003 5.54497 32.27C6.02433 33.2108 6.78923 33.9757 7.73005 34.455C8.7996 35 10.1997 35 13 35H27C29.8003 35 31.2003 35 32.27 34.455C33.2108 33.9757 33.9757 33.2108 34.455 32.27C35 31.2003 35 29.8003 35 27V19.6667C35 16.8663 35 15.4663 34.455 14.3967C33.9757 13.4559 33.2108 12.691 32.27 12.2116C31.2003 11.6667 29.8003 11.6667 27 11.6667H26.6667M13.3333 11.6667V10C13.3333 8.44687 13.3333 7.6703 13.5871 7.05772C13.9254 6.24097 14.5743 5.59205 15.391 5.25373C16.0036 5 16.7802 5 18.3333 5H21.6667C23.2198 5 23.9963 5 24.609 5.25373C25.4257 5.59205 26.0747 6.24097 26.413 7.05772C26.6667 7.6703 26.6667 8.44687 26.6667 10V11.6667M13.3333 11.6667H26.6667" stroke="white" stroke-width="3" stroke-linecap="round" stroke-linejoin="round"/>
</symbol>
<!-- education-icon -->
<symbol id="education-icon" viewBox="0 0 40 40" fill="none">
  <path d="M6.66666 31.6667V10.3333C6.66666 8.4665 6.66666 7.53307 7.02998 6.82003C7.34955 6.19282 7.85948 5.68288 8.4867 5.36332C9.19973 5 10.1332 5 12 5H28C29.8668 5 30.8003 5 31.5133 5.36332C32.1405 5.68288 32.6505 6.19282 32.97 6.82003C33.3333 7.53307 33.3333 8.4665 33.3333 10.3333V28.3333H10C8.15905 28.3333 6.66666 29.8257 6.66666 31.6667ZM6.66666 31.6667C6.66666 33.5077 8.15905 35 10 35H33.3333M15 11.6667H25M15 18.3333H25M31.6667 28.3333V35" stroke="white" stroke-width="3" stroke-linecap="round" stroke-linejoin="round"/>
</symbol>
<!-- burger-menu-icon -->
<symbol id="burger-menu-icon" viewBox="0 0 20 8" fill="none">
  <rect width="20" height="2" rx="1" fill="currentColor"/>
  <rect y="6" width="20" height="2" rx="1" fill="currentColor"/>
</symbol>
</svg>
