<svg width="80" height="80" viewBox="0 0 80 80" fill="none" xmlns="http://www.w3.org/2000/svg">
<g clip-path="url(#clip0_686_192)">
<path d="M14.1667 6.44812e-06H65.8333C67.6942 -0.00179242 69.5372 0.372807 71.2568 1.10237C72.9763 1.83193 74.5387 2.90212 75.8546 4.25171C77.1704 5.60129 78.2139 7.20377 78.9252 8.96743C79.6365 10.7311 80.0018 12.6213 80 14.5299V65.4701C80.0018 67.3787 79.6365 69.2689 78.9252 71.0326C78.2139 72.7962 77.1704 74.3987 75.8546 75.7483C74.5387 77.0979 72.9763 78.1681 71.2568 78.8976C69.5372 79.6272 67.6942 80.0018 65.8333 80H14.1667C12.3058 80.0018 10.4628 79.6272 8.74325 78.8976C7.02368 78.1681 5.46126 77.0979 4.14542 75.7483C2.82957 74.3987 1.78613 72.7962 1.07481 71.0326C0.363487 69.2689 -0.00174761 67.3787 6.28692e-06 65.4701V14.5299C-0.00174761 12.6213 0.363487 10.7311 1.07481 8.96743C1.78613 7.20377 2.82957 5.60129 4.14542 4.25171C5.46126 2.90212 7.02368 1.83193 8.74325 1.10237C10.4628 0.372807 12.3058 -0.00179242 14.1667 6.44812e-06V6.44812e-06Z" fill="#000B1D"/>
<path d="M39.5 14L15 23.4231L18.7692 55.4615L39.5 66.7692L60.2308 55.4615L64 23.4231L39.5 14Z" fill="#DD0031"/>
<path d="M39.5 14V66.7692L60.2308 55.4615L64 23.4231L39.5 14Z" fill="#C3002F"/>
<path d="M39.4994 19.8304L24.1836 54.2625H29.8941L32.973 46.558H45.973L49.0519 54.2625H54.7625L39.4994 19.8304ZM43.9731 41.8087H35.0257L39.4994 31.0176L43.9731 41.8087Z" fill="white"/>
</g>
<defs>
<clipPath id="clip0_686_192">
<rect width="80" height="80" fill="white"/>
</clipPath>
</defs>
</svg>
