<svg width="81" height="81" viewBox="0 0 81 81" fill="none" xmlns="http://www.w3.org/2000/svg">
<g clip-path="url(#clip0_1461_16613)">
<path d="M14.8073 0.640998L66.474 0.640998C68.3348 0.639199 70.1778 1.0138 71.8974 1.74336C73.6169 2.47292 75.1794 3.54311 76.4952 4.8927C77.8111 6.24228 78.8545 7.84476 79.5658 9.60843C80.2771 11.3721 80.6424 13.2623 80.6406 15.1709V66.1111C80.6424 68.0197 80.2771 69.9099 79.5658 71.6736C78.8545 73.4372 77.8111 75.0397 76.4952 76.3893C75.1794 77.7389 73.6169 78.8091 71.8974 79.5386C70.1778 80.2682 68.3348 80.6428 66.474 80.641H14.8073C12.9464 80.6428 11.1034 80.2682 9.38387 79.5386C7.6643 78.8091 6.10189 77.7389 4.78604 76.3893C3.47019 75.0397 2.42675 73.4372 1.71543 71.6736C1.00411 69.9099 0.638877 68.0197 0.640631 66.1111L0.640631 15.1709C0.638877 13.2623 1.00411 11.3721 1.71543 9.60843C2.42675 7.84476 3.47019 6.24228 4.78604 4.8927C6.10189 3.54311 7.6643 2.47292 9.38387 1.74336C11.1034 1.0138 12.9464 0.639199 14.8073 0.640998V0.640998Z" fill="white"/>
<path d="M40.6457 65.8144L22.6508 60.8188L18.6406 15.8411L62.7046 15.8411L58.6903 60.8119L40.6457 65.8144V65.8144Z" fill="#264DE4"/>
<path d="M55.2538 57.9482L58.6841 19.5186H40.6729V61.9905L55.2538 57.9482V57.9482Z" fill="#2965F1"/>
<path d="M27.8334 36.2002L28.3277 41.7165H40.6722V36.2002H27.8334ZM26.8398 25.035L27.3413 30.5514H40.6722V25.035H26.8398V25.035ZM40.6722 50.5267L40.648 50.5331L34.5045 48.8743L34.1118 44.4748H28.5742L29.347 53.1363L40.6468 56.273L40.6722 56.2661V50.5267Z" fill="#EBEBEB"/>
<path d="M53.4761 36.2002L54.4719 25.035H40.6535V30.5514H48.4265L47.9245 36.2002H40.6535V41.7165H47.4463L46.8058 48.8708L40.6533 50.5314V56.2704L51.9622 53.1363L52.0451 52.2042L53.3416 37.6815L53.4761 36.2002V36.2002Z" fill="white"/>
</g>
<defs>
<clipPath id="clip0_1461_16613">
<rect width="80" height="80" fill="white" transform="translate(0.640625 0.640991)"/>
</clipPath>
</defs>
</svg>
