<svg width="80" height="80" viewBox="0 0 80 80" fill="none" xmlns="http://www.w3.org/2000/svg">
<g clip-path="url(#clip0_668_83)">
<path d="M14.1667 6.44812e-06H65.8333C67.6942 -0.00179242 69.5372 0.372807 71.2568 1.10237C72.9763 1.83193 74.5387 2.90212 75.8546 4.25171C77.1704 5.60129 78.2139 7.20377 78.9252 8.96743C79.6365 10.7311 80.0018 12.6213 80 14.5299V65.4701C80.0018 67.3787 79.6365 69.2689 78.9252 71.0326C78.2139 72.7962 77.1704 74.3987 75.8546 75.7483C74.5387 77.0979 72.9763 78.1681 71.2568 78.8976C69.5372 79.6272 67.6942 80.0018 65.8333 80H14.1667C12.3058 80.0018 10.4628 79.6272 8.74325 78.8976C7.02368 78.1681 5.46126 77.0979 4.14542 75.7483C2.82957 74.3987 1.78613 72.7962 1.07481 71.0326C0.363487 69.2689 -0.00174761 67.3787 6.28692e-06 65.4701V14.5299C-0.00174761 12.6213 0.363487 10.7311 1.07481 8.96743C1.78613 7.20377 2.82957 5.60129 4.14542 4.25171C5.46126 2.90212 7.02368 1.83193 8.74325 1.10237C10.4628 0.372807 12.3058 -0.00179242 14.1667 6.44812e-06V6.44812e-06Z" fill="#000B1D"/>
<path d="M32.3333 64.4001C36.9357 64.4001 40.6667 60.6691 40.6667 56.0667V47.7334H32.3333C27.731 47.7334 24 51.4644 24 56.0667C24 60.6691 27.731 64.4001 32.3333 64.4001Z" fill="#0ACF83"/>
<path d="M24 39.4C24 34.7976 27.731 31.0667 32.3333 31.0667H40.6667V47.7333H32.3333C27.731 47.7333 24 44.0024 24 39.4Z" fill="#A259FF"/>
<path d="M24 22.7334C24 18.131 27.731 14.4 32.3333 14.4H40.6667V31.0667H32.3333C27.731 31.0667 24 27.3357 24 22.7334Z" fill="#F24E1E"/>
<path d="M40.667 14.4H49.0003C53.6027 14.4 57.3337 18.131 57.3337 22.7334C57.3337 27.3357 53.6027 31.0667 49.0003 31.0667H40.667V14.4Z" fill="#FF7262"/>
<path d="M57.3337 39.4C57.3337 44.0024 53.6027 47.7333 49.0003 47.7333C44.398 47.7333 40.667 44.0024 40.667 39.4C40.667 34.7976 44.398 31.0667 49.0003 31.0667C53.6027 31.0667 57.3337 34.7976 57.3337 39.4Z" fill="#1ABCFE"/>
</g>
<defs>
<clipPath id="clip0_668_83">
<rect width="80" height="80" fill="white"/>
</clipPath>
</defs>
</svg>
