<svg width="80" height="80" viewBox="0 0 80 80" fill="none" xmlns="http://www.w3.org/2000/svg">
<g clip-path="url(#clip0_1461_16606)">
<path d="M14.1667 6.44812e-06H65.8333C67.6942 -0.00179242 69.5372 0.372807 71.2567 1.10237C72.9763 1.83193 74.5387 2.90212 75.8546 4.25171C77.1704 5.60129 78.2139 7.20377 78.9252 8.96743C79.6365 10.7311 80.0017 12.6213 80 14.5299V65.4701C80.0017 67.3787 79.6365 69.2689 78.9252 71.0326C78.2139 72.7962 77.1704 74.3987 75.8546 75.7483C74.5387 77.0979 72.9763 78.1681 71.2567 78.8976C69.5372 79.6272 67.6942 80.0018 65.8333 80H14.1667C12.3058 80.0018 10.4628 79.6272 8.74325 78.8976C7.02368 78.1681 5.46126 77.0979 4.14541 75.7483C2.82957 74.3987 1.78613 72.7962 1.07481 71.0326C0.363487 69.2689 -0.00174761 67.3787 6.28692e-06 65.4701V14.5299C-0.00174761 12.6213 0.363487 10.7311 1.07481 8.96743C1.78613 7.20377 2.82957 5.60129 4.14541 4.25171C5.46126 2.90212 7.02368 1.83193 8.74325 1.10237C10.4628 0.372807 12.3058 -0.00179242 14.1667 6.44812e-06V6.44812e-06Z" fill="white"/>
<path d="M62.0328 15.2L58.0184 60.1719L39.9734 65.1745L21.978 60.1788L17.9678 15.2H62.0328Z" fill="#E44D26"/>
<path d="M40 61.3506L54.5813 57.3082L58.0117 18.8776H40V61.3506Z" fill="#F16529"/>
<path d="M32.1968 29.9106H40.0007V24.3942H26.168L26.2999 25.8741L27.6559 41.0761H40.0007V35.5596H32.701L32.1968 29.9106V29.9106ZM33.4401 43.8344H27.9023L28.6751 52.4961L39.9753 55.6328L40.0007 55.6259V49.8865L39.9765 49.8929L33.8328 48.234L33.4401 43.8344V43.8344Z" fill="#EBEBEB"/>
<path d="M39.9816 41.0761H46.7746L46.1341 48.2305L39.9814 49.8911V55.6303L51.2906 52.4961L51.3735 51.564L52.67 37.0409L52.8046 35.5596H39.9816V41.0761ZM39.9816 29.8972V29.9106H53.3065L53.4171 28.6708L53.6685 25.8741L53.8003 24.3942H39.9816V29.8973V29.8972Z" fill="white"/>
</g>
<defs>
<clipPath id="clip0_1461_16606">
<rect width="80" height="80" fill="white"/>
</clipPath>
</defs>
</svg>
