<svg width="80" height="80" viewBox="0 0 80 80" fill="none" xmlns="http://www.w3.org/2000/svg">
<g clip-path="url(#clip0_686_156)">
<path d="M14.1667 6.44812e-06H65.8333C67.6942 -0.00179242 69.5372 0.372807 71.2568 1.10237C72.9763 1.83193 74.5387 2.90212 75.8546 4.25171C77.1704 5.60129 78.2139 7.20377 78.9252 8.96743C79.6365 10.7311 80.0018 12.6213 80 14.5299V65.4701C80.0018 67.3787 79.6365 69.2689 78.9252 71.0326C78.2139 72.7962 77.1704 74.3987 75.8546 75.7483C74.5387 77.0979 72.9763 78.1681 71.2568 78.8976C69.5372 79.6272 67.6942 80.0018 65.8333 80H14.1667C12.3058 80.0018 10.4628 79.6272 8.74325 78.8976C7.02368 78.1681 5.46126 77.0979 4.14542 75.7483C2.82957 74.3987 1.78613 72.7962 1.07481 71.0326C0.363487 69.2689 -0.00174761 67.3787 6.28692e-06 65.4701V14.5299C-0.00174761 12.6213 0.363487 10.7311 1.07481 8.96743C1.78613 7.20377 2.82957 5.60129 4.14542 4.25171C5.46126 2.90212 7.02368 1.83193 8.74325 1.10237C10.4628 0.372807 12.3058 -0.00179242 14.1667 6.44812e-06V6.44812e-06Z" fill="#000B1D"/>
<path d="M44.946 40.3843C44.946 37.4677 42.5074 35.1029 39.4989 35.1029C36.4907 35.1029 34.0518 37.4677 34.0518 40.3843C34.0518 43.3013 36.4907 45.6659 39.4989 45.6659C42.5074 45.6659 44.946 43.3013 44.946 40.3843Z" fill="#53C1DE"/>
<path fill-rule="evenodd" clip-rule="evenodd" d="M57.1908 30.5792C58.3411 26.0471 59.787 17.6427 54.6898 14.7933C49.6164 11.9564 43.0144 17.3925 39.5283 20.6555C36.0523 17.425 29.2648 12.0121 24.172 14.8705C19.1006 17.717 20.6645 25.982 21.8403 30.5426C17.1096 31.8453 9 34.6513 9 40.3843C9 46.101 17.1011 49.1539 21.8039 50.4554C20.6237 55.0412 19.1381 63.1882 24.216 66.0283C29.3278 68.8862 36.0942 63.6021 39.6126 60.3035C43.1212 63.5857 49.6598 68.9043 54.7341 66.0562C59.8244 63.1991 58.4987 54.9074 57.3228 50.3204C61.8815 49.016 70 46.0297 70 40.3843C70 34.7064 61.8469 31.8777 57.1908 30.5792ZM56.6129 47.8896C55.8409 45.5199 54.7988 43 53.5241 40.3969C54.7409 37.8553 55.7425 35.3679 56.493 33.0135C59.9063 33.973 67.3943 36.166 67.3943 40.3843C67.3943 44.6423 60.2087 46.856 56.6129 47.8896ZM53.4283 63.8695C49.6423 65.9944 44.0183 60.9082 41.4272 58.4912C43.1462 56.6683 44.8639 54.5491 46.5404 52.196C49.4896 51.9424 52.2754 51.5276 54.8021 50.9613C55.6296 54.2059 57.2311 61.7351 53.4283 63.8695ZM25.518 63.8392C21.7316 61.7223 23.4622 54.4523 24.3305 51.0744C26.829 51.6104 29.5948 51.9959 32.5509 52.2283C34.2383 54.5308 36.0059 56.6473 37.7871 58.5009C35.5864 60.565 29.3221 65.9659 25.518 63.8392ZM11.6057 40.3843C11.6057 36.1105 19.0489 33.9334 22.54 32.9763C23.3035 35.3835 24.3048 37.9006 25.5132 40.4459C24.2891 43.0291 23.2735 45.586 22.5031 48.0217C19.1742 47.0978 11.6057 44.6608 11.6057 40.3843ZM25.4775 17.0572C29.2794 14.9235 35.1786 20.12 37.7023 22.4589C35.9303 24.304 34.179 26.4045 32.5059 28.6939C29.6371 28.9517 26.8908 29.3657 24.3661 29.9204C23.4189 26.2421 21.6797 19.1886 25.4775 17.0572ZM48.4046 31.4401C50.3509 31.6782 52.2157 31.995 53.9666 32.3826C53.4409 34.0161 52.7858 35.7243 52.0141 37.4754C50.8956 35.4177 49.6949 33.4013 48.4046 31.4401ZM39.5291 24.2645C40.731 25.5269 41.9347 26.9367 43.1189 28.4661C40.717 28.3559 38.3111 28.3555 35.9091 28.4645C37.0944 26.9492 38.3085 25.5416 39.5291 24.2645ZM27.0082 37.4736C26.2494 35.7286 25.6001 34.0129 25.0699 32.3559C26.8103 31.9783 28.6664 31.6697 30.6001 31.4354C29.3061 33.3923 28.1074 35.4079 27.0082 37.4736ZM30.6556 49.5136C28.6581 49.2974 26.7739 49.0044 25.034 48.6372C25.5726 46.9512 26.2361 45.1984 27.0112 43.4158C28.1255 45.503 29.3425 47.5382 30.6556 49.5136ZM39.6013 56.6827C38.3662 55.3905 37.1342 53.9613 35.9311 52.4241C38.3467 52.516 40.767 52.5162 43.1824 52.4117C41.9945 53.977 40.795 55.4082 39.6013 56.6827ZM52.039 43.3251C52.8543 45.1271 53.5416 46.8703 54.0875 48.5278C52.3187 48.9192 50.4092 49.2344 48.3973 49.4684C49.6972 47.4701 50.917 45.4223 52.039 43.3251ZM45.0862 49.7747C41.3912 50.0307 37.6733 50.0278 33.9771 49.7956C31.8768 46.821 30.0072 43.6928 28.3933 40.4451C29.9995 37.2042 31.8555 34.082 33.9457 31.1121C37.6446 30.8411 41.3662 30.8403 45.065 31.1138C47.1374 34.0834 48.9906 37.1975 50.6339 40.4091C49.0101 43.6484 47.1443 46.7769 45.0862 49.7747ZM53.3883 16.9821C57.1912 19.1088 55.4985 26.6621 54.6676 29.9466C52.137 29.3803 49.3887 28.959 46.5115 28.6971C44.8353 26.3831 43.0986 24.2789 41.3552 22.4576C43.9113 20.0683 49.6221 14.8761 53.3883 16.9821Z" fill="#53C1DE"/>
</g>
<defs>
<clipPath id="clip0_686_156">
<rect width="80" height="80" fill="white"/>
</clipPath>
</defs>
</svg>
