<svg width="16" height="16" viewBox="0 0 16 16" fill="none" xmlns="http://www.w3.org/2000/svg">
<rect width="16" height="16" fill="#F7DF1E"/>
<path d="M11.5779 13.1989C11.853 13.6206 12.2108 13.9306 12.8438 13.9306C13.3755 13.9306 13.7152 13.6811 13.7152 13.3363C13.7152 12.9231 13.3662 12.7768 12.7809 12.5364L12.4601 12.4072C11.5341 12.0367 10.9189 11.5727 10.9189 10.5916C10.9189 9.68795 11.6522 9 12.7983 9C13.6142 9 14.2008 9.26663 14.6235 9.96475L13.6242 10.5672C13.4042 10.1968 13.1668 10.0508 12.7983 10.0508C12.4224 10.0508 12.1842 10.2747 12.1842 10.5672C12.1842 10.9287 12.4226 11.075 12.9732 11.2989L13.294 11.428C14.3844 11.867 15 12.3146 15 13.3208C15 14.4057 14.0924 15 12.8735 15C11.6817 15 10.9118 14.4667 10.535 13.7678L11.5779 13.1989ZM7.04461 13.3033C7.2462 13.6392 7.42959 13.9231 7.87049 13.9231C8.29211 13.9231 8.55808 13.7682 8.55808 13.1659V9.06879H9.84135V13.1822C9.84135 14.4299 9.06228 14.9978 7.92512 14.9978C6.89764 14.9978 6.30261 14.4985 6 13.8971L7.04461 13.3033Z" fill="black"/>
</svg>
