<svg width="16" height="17" viewBox="0 0 16 17" fill="none" xmlns="http://www.w3.org/2000/svg">
<path d="M7.41333 13.0133L6.13333 11.7333L6.77333 11.04L8.90667 13.1733V13.8667L6.77333 16L6.08 15.2533L7.36 13.9733H5.49333C4.81778 14.0089 4.23111 13.7778 3.73333 13.28C3.23556 12.7822 2.98667 12.1956 2.98667 11.52V5.97333C2.48889 5.86667 2.06222 5.63556 1.70667 5.28C1.35111 4.92444 1.12 4.49778 1.01333 4C0.942222 3.50222 0.995556 3.02222 1.17333 2.56C1.38667 2.09778 1.68889 1.72444 2.08 1.44C2.50667 1.15556 2.98667 1.01333 3.52 1.01333C3.84 1.01333 4.16 1.06667 4.48 1.17333C5.12 1.45778 5.58222 1.92 5.86667 2.56C5.97333 2.88 6.02667 3.2 6.02667 3.52C6.02667 4.12444 5.83111 4.65778 5.44 5.12C5.08444 5.58222 4.62222 5.86667 4.05333 5.97333V11.4667C4.05333 11.8933 4.19556 12.2667 4.48 12.5867C4.76444 12.8711 5.12 13.0133 5.54667 13.0133H7.41333ZM2.72 4.74667C3.00444 4.92444 3.32444 4.99556 3.68 4.96C4.03556 4.92444 4.33778 4.78222 4.58667 4.53333C4.83556 4.28444 4.97778 3.98222 5.01333 3.62667C5.04889 3.27111 4.97778 2.96889 4.8 2.72C4.62222 2.43556 4.39111 2.24 4.10667 2.13333C3.82222 1.99111 3.53778 1.95556 3.25333 2.02667C2.96889 2.06222 2.70222 2.20444 2.45333 2.45333C2.24 2.66667 2.09778 2.91556 2.02667 3.2C1.99111 3.48444 2.02667 3.76889 2.13333 4.05333C2.27556 4.33778 2.47111 4.56889 2.72 4.74667ZM13.0133 11.04C13.5111 11.1467 13.9378 11.3778 14.2933 11.7333C14.72 12.16 14.9511 12.6756 14.9867 13.28C15.0578 13.8489 14.9333 14.3822 14.6133 14.88C14.3289 15.3067 13.9556 15.6267 13.4933 15.84C13.0311 16.0178 12.5511 16.0533 12.0533 15.9467C11.5556 15.84 11.1289 15.6089 10.7733 15.2533C10.4178 14.8978 10.1867 14.4711 10.08 13.9733C9.97333 13.4756 10.0089 12.9956 10.1867 12.5333C10.4 12.0711 10.72 11.6978 11.1467 11.4133C11.4311 11.2356 11.7333 11.1111 12.0533 11.04V5.49333C12.0533 5.06667 11.8933 4.71111 11.5733 4.42667C11.2889 4.14222 10.9511 4 10.56 4H8.69333L9.97333 5.28L9.22667 5.97333L7.09333 3.84V3.14667L9.22667 1.01333L9.97333 1.70667L8.69333 2.98667H10.56C11.2356 2.98667 11.8222 3.23556 12.32 3.73333C12.8178 4.19556 13.0489 4.78222 13.0133 5.49333V11.04ZM12.6933 14.9867C12.9422 14.9511 13.1733 14.8622 13.3867 14.72C13.6 14.5778 13.76 14.3822 13.8667 14.1333C14.0089 13.8844 14.0622 13.6356 14.0267 13.3867C14.0267 13.1378 13.9378 12.8889 13.76 12.64C13.6178 12.3911 13.4044 12.2133 13.12 12.1067C12.8356 12 12.5333 11.9822 12.2133 12.0533C11.9289 12.0889 11.68 12.2133 11.4667 12.4267C11.2533 12.64 11.1111 12.9067 11.04 13.2267C11.0044 13.5111 11.04 13.7956 11.1467 14.08C11.2889 14.3644 11.5022 14.5956 11.7867 14.7733C12.0711 14.9511 12.3733 15.0222 12.6933 14.9867Z" fill="#CCCCCC"/>
</svg>
