<svg xmlns="http://www.w3.org/2000/svg">
  <!-- viewing-sign-icon -->
  <symbol id="viewing-sign-icon" viewBox="0 0 19 15">
    <path d="M1.83532 6.72067C3.89042 3.27554 6.74405 1.65643 9.50001 1.65645C12.2559 1.65647 15.1096 3.27563 17.1647 6.72078L18.55 5.85902C16.2611 2.022 12.9294 3.31292e-05 9.50002 1.80937e-10C6.07063 -2.20858e-05 2.73892 2.0219 0.450049 5.85892L1.83532 6.72067ZM0.450049 9.14102C2.73892 12.978 6.07062 15 9.5 15C12.9294 15 16.2611 12.9781 18.55 9.14114L17.1647 8.27934C15.1096 11.7244 12.2559 13.3436 9.50002 13.3436C6.74406 13.3436 3.89042 11.7244 1.83532 8.27923L0.450049 9.14102ZM0.450049 5.85892C-0.150016 6.86486 -0.150016 8.13501 0.450049 9.14102L1.83532 8.27923C1.55098 7.80261 1.55098 7.19736 1.83532 6.72067L0.450049 5.85892ZM17.1647 6.72078C17.449 7.19746 17.449 7.80272 17.1647 8.27934L18.55 9.14114C19.15 8.13512 19.15 6.86497 18.55 5.85902L17.1647 6.72078ZM11.6177 7.50003C11.6177 8.69445 10.6695 9.66259 9.50001 9.66259V11.319C11.5655 11.319 13.2398 9.60925 13.2398 7.50003H11.6177ZM9.50001 9.66259C8.33044 9.66259 7.38232 8.69445 7.38232 7.50003H5.76026C5.76026 9.60925 7.43461 11.319 9.50001 11.319V9.66259ZM7.38232 7.50003C7.38232 6.30568 8.33044 5.33746 9.50001 5.33746V3.68101C7.43461 3.68101 5.76026 5.39085 5.76026 7.50003H7.38232ZM9.50001 5.33746C10.6695 5.33746 11.6177 6.30568 11.6177 7.50003H13.2398C13.2398 5.39085 11.5655 3.68101 9.50001 3.68101V5.33746Z" fill="white"/>
  </symbol>
  <!-- source-control-icon -->
  <symbol id="source-control-icon" viewBox="0 0 16 17">
    <path d="M7.41333 13.0133L6.13333 11.7333L6.77333 11.04L8.90667 13.1733V13.8667L6.77333 16L6.08 15.2533L7.36 13.9733H5.49333C4.81778 14.0089 4.23111 13.7778 3.73333 13.28C3.23556 12.7822 2.98667 12.1956 2.98667 11.52V5.97333C2.48889 5.86667 2.06222 5.63556 1.70667 5.28C1.35111 4.92444 1.12 4.49778 1.01333 4C0.942222 3.50222 0.995556 3.02222 1.17333 2.56C1.38667 2.09778 1.68889 1.72444 2.08 1.44C2.50667 1.15556 2.98667 1.01333 3.52 1.01333C3.84 1.01333 4.16 1.06667 4.48 1.17333C5.12 1.45778 5.58222 1.92 5.86667 2.56C5.97333 2.88 6.02667 3.2 6.02667 3.52C6.02667 4.12444 5.83111 4.65778 5.44 5.12C5.08444 5.58222 4.62222 5.86667 4.05333 5.97333V11.4667C4.05333 11.8933 4.19556 12.2667 4.48 12.5867C4.76444 12.8711 5.12 13.0133 5.54667 13.0133H7.41333ZM2.72 4.74667C3.00444 4.92444 3.32444 4.99556 3.68 4.96C4.03556 4.92444 4.33778 4.78222 4.58667 4.53333C4.83556 4.28444 4.97778 3.98222 5.01333 3.62667C5.04889 3.27111 4.97778 2.96889 4.8 2.72C4.62222 2.43556 4.39111 2.24 4.10667 2.13333C3.82222 1.99111 3.53778 1.95556 3.25333 2.02667C2.96889 2.06222 2.70222 2.20444 2.45333 2.45333C2.24 2.66667 2.09778 2.91556 2.02667 3.2C1.99111 3.48444 2.02667 3.76889 2.13333 4.05333C2.27556 4.33778 2.47111 4.56889 2.72 4.74667ZM13.0133 11.04C13.5111 11.1467 13.9378 11.3778 14.2933 11.7333C14.72 12.16 14.9511 12.6756 14.9867 13.28C15.0578 13.8489 14.9333 14.3822 14.6133 14.88C14.3289 15.3067 13.9556 15.6267 13.4933 15.84C13.0311 16.0178 12.5511 16.0533 12.0533 15.9467C11.5556 15.84 11.1289 15.6089 10.7733 15.2533C10.4178 14.8978 10.1867 14.4711 10.08 13.9733C9.97333 13.4756 10.0089 12.9956 10.1867 12.5333C10.4 12.0711 10.72 11.6978 11.1467 11.4133C11.4311 11.2356 11.7333 11.1111 12.0533 11.04V5.49333C12.0533 5.06667 11.8933 4.71111 11.5733 4.42667C11.2889 4.14222 10.9511 4 10.56 4H8.69333L9.97333 5.28L9.22667 5.97333L7.09333 3.84V3.14667L9.22667 1.01333L9.97333 1.70667L8.69333 2.98667H10.56C11.2356 2.98667 11.8222 3.23556 12.32 3.73333C12.8178 4.19556 13.0489 4.78222 13.0133 5.49333V11.04ZM12.6933 14.9867C12.9422 14.9511 13.1733 14.8622 13.3867 14.72C13.6 14.5778 13.76 14.3822 13.8667 14.1333C14.0089 13.8844 14.0622 13.6356 14.0267 13.3867C14.0267 13.1378 13.9378 12.8889 13.76 12.64C13.6178 12.3911 13.4044 12.2133 13.12 12.1067C12.8356 12 12.5333 11.9822 12.2133 12.0533C11.9289 12.0889 11.68 12.2133 11.4667 12.4267C11.2533 12.64 11.1111 12.9067 11.04 13.2267C11.0044 13.5111 11.04 13.7956 11.1467 14.08C11.2889 14.3644 11.5022 14.5956 11.7867 14.7733C12.0711 14.9511 12.3733 15.0222 12.6933 14.9867Z" fill="#CCCCCC"/>
  </symbol>
  <!-- split-editor-icon -->
  <symbol id="split-editor-icon" viewBox="0 0 16 16">
    <path d="M14.0267 1.01333H2.98667L2.02667 1.97333V13.0133L2.98667 13.9733H14.0267L14.9867 13.0133V1.97333L14.0267 1.01333ZM8 13.0133H2.98667V1.97333H8V13.0133ZM14.0267 13.0133H9.01333V1.97333H14.0267V13.0133Z" fill="#CCCCCC"/>
  </symbol>
  <!-- more-actions-icon -->
  <symbol id="more-actions-icon" viewBox="0 0 16 16">
    <path d="M4 8C4 8.28444 3.89333 8.53333 3.68 8.74667C3.50222 8.92444 3.27111 9.01333 2.98667 9.01333C2.70222 9.01333 2.47111 8.92444 2.29333 8.74667C2.11556 8.53333 2.02667 8.28444 2.02667 8C2.02667 7.71556 2.11556 7.48444 2.29333 7.30667C2.47111 7.09333 2.70222 6.98667 2.98667 6.98667C3.27111 6.98667 3.50222 7.09333 3.68 7.30667C3.89333 7.48444 4 7.71556 4 8ZM9.01333 8C9.01333 8.28444 8.90667 8.53333 8.69333 8.74667C8.51556 8.92444 8.28444 9.01333 8 9.01333C7.71556 9.01333 7.46667 8.92444 7.25333 8.74667C7.07556 8.53333 6.98667 8.28444 6.98667 8C6.98667 7.71556 7.07556 7.48444 7.25333 7.30667C7.46667 7.09333 7.71556 6.98667 8 6.98667C8.28444 6.98667 8.51556 7.09333 8.69333 7.30667C8.90667 7.48444 9.01333 7.71556 9.01333 8ZM14.0267 8C14.0267 8.28444 13.92 8.53333 13.7067 8.74667C13.5289 8.92444 13.2978 9.01333 13.0133 9.01333C12.7289 9.01333 12.48 8.92444 12.2667 8.74667C12.0889 8.53333 12 8.28444 12 8C12 7.71556 12.0889 7.48444 12.2667 7.30667C12.48 7.09333 12.7289 6.98667 13.0133 6.98667C13.2978 6.98667 13.5289 7.09333 13.7067 7.30667C13.92 7.48444 14.0267 7.71556 14.0267 8Z" fill="#CCCCCC"/>
  </symbol>
  <!-- small-js-icon -->
  <symbol id="small-js-icon" viewBox="0 0 16 16">
    <rect width="16" height="16" fill="#F7DF1E"/>
    <path d="M11.5779 13.1989C11.853 13.6206 12.2108 13.9306 12.8438 13.9306C13.3755 13.9306 13.7152 13.6811 13.7152 13.3363C13.7152 12.9231 13.3662 12.7768 12.7809 12.5364L12.4601 12.4072C11.5341 12.0367 10.9189 11.5727 10.9189 10.5916C10.9189 9.68795 11.6522 9 12.7983 9C13.6142 9 14.2008 9.26663 14.6235 9.96475L13.6242 10.5672C13.4042 10.1968 13.1668 10.0508 12.7983 10.0508C12.4224 10.0508 12.1842 10.2747 12.1842 10.5672C12.1842 10.9287 12.4226 11.075 12.9732 11.2989L13.294 11.428C14.3844 11.867 15 12.3146 15 13.3208C15 14.4057 14.0924 15 12.8735 15C11.6817 15 10.9118 14.4667 10.535 13.7678L11.5779 13.1989ZM7.04461 13.3033C7.2462 13.6392 7.42959 13.9231 7.87049 13.9231C8.29211 13.9231 8.55808 13.7682 8.55808 13.1659V9.06879H9.84135V13.1822C9.84135 14.4299 9.06228 14.9978 7.92512 14.9978C6.89764 14.9978 6.30261 14.4985 6 13.8971L7.04461 13.3033Z" fill="black"/> 
  </symbol>
  <!-- close-file-icon -->
  <symbol id="close-file-icon" viewBox="0 0 10 10">
    <path d="M5 5.69333L8.62667 9.37333L9.37333 8.62667L5.69333 5L9.37333 1.37333L8.62667 0.626666L5 4.30667L1.37333 0.626666L0.626667 1.37333L4.30667 5L0.626667 8.62667L1.37333 9.37333L5 5.69333Z" fill="#CCCCCC"/>
  </symbol>
  <!-- cross-icon -->
  <symbol id="cross-icon" viewBox="0 0 22 22">
    <path d="M19.1599 19.1601L11.0494 11.0495M2.93888 2.93902L11.0494 11.0495M11.0494 11.0495L2.9389 19.16M11.0494 11.0495L19.1599 2.939" stroke="white" stroke-width="4" stroke-linecap="round"/>
  </symbol>
  <!-- explicit-icon -->
  <symbol id="explicit-icon" viewBox="0 0 12 12">
    <g clip-path="url(#clip0_1630_229)">
    <g clip-path="url(#clip1_1630_229)">
    <path fill-rule="evenodd" clip-rule="evenodd" d="M1.8 0H10.2C11.1941 0 12 0.805888 12 1.8V10.2C12 11.1941 11.1941 12 10.2 12H1.8C0.805888 12 0 11.1941 0 10.2V1.8C0 0.805888 0.805888 0 1.8 0ZM8.22047 9.32484H3.78047V2.66484H8.22047V3.81408H5.18306V5.42023H8.04863V6.49099H5.18306V8.17561H8.22047V9.32484Z" fill="#949494"/>
    </g>
    </g>
    <defs>
    <clipPath id="clip0_1630_229">
    <rect width="12" height="12" fill="#949494"/>
    </clipPath>
    <clipPath id="clip1_1630_229">
    <rect width="12" height="12" fill="#949494"/>
    </clipPath>
    </defs>
  </symbol>
  <!-- Playlist-icon -->
  <symbol id="Playlist-icon" viewBox="0 0 18 18">
    <g clip-path="url(#clip0_1499_315)">
    <path fill-rule="evenodd" clip-rule="evenodd" d="M1.5 6.00195C0.671573 6.00195 0 6.67353 0 7.50195V16.502C0 17.3304 0.671573 18.002 1.5 18.002H16.5C17.3284 18.002 18 17.3304 18 16.502V7.50195C18 6.67353 17.3284 6.00195 16.5 6.00195H1.5ZM7.12562 10.1271C7.12562 9.55121 7.74773 9.19019 8.24772 9.4759L11.236 11.1835C11.7399 11.4714 11.7399 12.198 11.236 12.4859L8.24772 14.1935C7.74773 14.4792 7.12562 14.1182 7.12562 13.5423V10.1271Z" fill="white"/>
    <path d="M16.5 2.99805H1.5C1.08579 2.99805 0.75 3.33383 0.75 3.74805C0.75 4.16226 1.08579 4.49805 1.5 4.49805H16.5C16.9142 4.49805 17.25 4.16226 17.25 3.74805C17.25 3.33383 16.9142 2.99805 16.5 2.99805Z" fill="white"/>
    <path d="M15.75 0H2.25C1.83579 0 1.5 0.335786 1.5 0.75C1.5 1.16421 1.83579 1.5 2.25 1.5H15.75C16.1642 1.5 16.5 1.16421 16.5 0.75C16.5 0.335786 16.1642 0 15.75 0Z" fill="white"/>
    </g>
    <defs>
    <clipPath id="clip0_1499_315">
    <rect width="18" height="18" fill="white"/>
    </clipPath>
    </defs>
  </symbol>
  <!-- Previous-song-icon -->
  <symbol id="Previous-song-icon" viewBox="0 0 16 12">
    <path d="M7.31131 6.80832C6.7517 6.41555 6.7517 5.58449 7.31131 5.19173L14.4516 0.180073C15.1038 -0.277683 15.9999 0.190148 15.9999 0.988389V11.0116C15.9999 11.8099 15.1038 12.2776 14.4516 11.82L7.31131 6.80832Z" fill="white"/>
    <path d="M0.41972 6.80832C-0.139907 6.41555 -0.139907 5.58449 0.41972 5.19173L7.55997 0.180073C8.21222 -0.277683 9.10836 0.190148 9.10836 0.988389V11.0116C9.10836 11.8099 8.21222 12.2776 7.55997 11.82L0.41972 6.80832Z" fill="white"/> 
  </symbol>
  <!-- Play-song-icon -->
  <symbol id="Play-song-icon" viewBox="0 0 18 18">
    <path d="M3.26117 0.396888C1.46014 -0.533979 0 0.228601 0 2.09877V15.8998C0 17.7719 1.46014 18.5335 3.26117 17.6035L16.6488 10.6856C18.4504 9.7544 18.4504 8.24566 16.6488 7.31473L3.26117 0.396888Z" fill="white"/>
  </symbol>
  <!-- Stop-song-icon -->
  <symbol id="Stop-song-icon" viewBox="0 0 18 20">
    <path d="M4.50157 0H2.25078C1.00771 0 0 0.994921 0 2.22222V17.7778C0 19.0051 1.00771 20 2.25078 20H4.50157C5.74465 20 6.75236 19.0051 6.75236 17.7778V2.22222C6.75236 0.994921 5.74465 0 4.50157 0Z" fill="white"/>
    <path d="M15.7496 0H13.4988C12.2558 0 11.248 0.994921 11.248 2.22222V17.7778C11.248 19.0051 12.2558 20 13.4988 20H15.7496C16.9927 20 18.0004 19.0051 18.0004 17.7778V2.22222C18.0004 0.994921 16.9927 0 15.7496 0Z" fill="white"/>
  </symbol>
  <!-- Next-song-icon -->
  <symbol id="Next-song-icon" viewBox="0 0 16 12">
    <path d="M8.68862 6.80827C9.24822 6.41551 9.24822 5.58445 8.68862 5.19168L1.54832 0.180073C0.89613 -0.277682 0 0.190148 0 0.988379V11.0116C0 11.8098 0.89613 12.2777 1.54832 11.8199L8.68862 6.80827Z" fill="white"/>
    <path d="M15.5802 6.80827C16.1398 6.41551 16.1398 5.58445 15.5802 5.19168L8.43999 0.180073C7.78774 -0.277682 6.8916 0.190148 6.8916 0.988379V11.0116C6.8916 11.8098 7.78774 12.2777 8.43999 11.8199L15.5802 6.80827Z" fill="white"/>
  </symbol>
  <!-- Volume-on-icon -->
  <symbol id="Volume-on-icon" viewBox="0 0 18 14">
    <path fill-rule="evenodd" clip-rule="evenodd" d="M8.38264 0.418214C8.75632 0.56534 8.99995 0.911956 8.99995 1.29643V12.7033C8.99995 13.0878 8.75632 13.4344 8.38264 13.5815C8.00897 13.7288 7.57885 13.6474 7.29286 13.3755L3.58577 9.8516H0.999994C0.447709 9.8516 0 9.42598 0 8.90105V5.09874C0 4.57375 0.447709 4.14816 0.999994 4.14816H3.58577L7.29286 0.624275C7.57885 0.35241 8.00897 0.271077 8.38264 0.418214Z" fill="white"/>
    <path fill-rule="evenodd" clip-rule="evenodd" d="M13.6575 0.278418C14.048 -0.092806 14.6811 -0.092806 15.0716 0.278418C16.8802 1.99758 18.0006 4.37533 18.0006 7.00002C18.0006 9.62473 16.8802 12.0025 15.0716 13.7216C14.6811 14.0928 14.048 14.0928 13.6575 13.7216C13.2669 13.3504 13.2669 12.7486 13.6575 12.3772C15.1062 11.0001 16.0006 9.10024 16.0006 7.00002C16.0006 4.89979 15.1062 2.99994 13.6575 1.62274C13.2669 1.25151 13.2669 0.649642 13.6575 0.278418ZM10.829 2.96705C11.2195 2.59583 11.8528 2.59583 12.2433 2.96705C12.7691 3.46695 13.1983 4.0598 13.5009 4.71828C13.8226 5.41822 14.0006 6.19062 14.0006 7.00002C14.0006 8.57472 13.3279 10.0019 12.2433 11.033C11.8528 11.4042 11.2195 11.4042 10.829 11.033C10.4385 10.6617 10.4385 10.0599 10.829 9.68866C11.554 8.99954 12.0006 8.05025 12.0006 7.00002C12.0006 6.45749 11.8816 5.94388 11.6683 5.47944C11.4669 5.04148 11.1808 4.64574 10.829 4.31137C10.4385 3.94015 10.4385 3.33828 10.829 2.96705Z" fill="white"/>
  </symbol>
  <!-- Volume-off-icon -->
  <symbol id="Volume-off-icon" viewBox="0 0 18 14">
    <path fill-rule="evenodd" clip-rule="evenodd" d="M8.38264 0.0723888C8.75632 0.219514 8.99995 0.56613 8.99995 0.950603V12.3575C8.99995 12.742 8.75632 13.0886 8.38264 13.2357C8.00897 13.3829 7.57885 13.3015 7.29286 13.0297L3.58577 9.50577H0.999994C0.447709 9.50577 0 9.08015 0 8.55522V4.75291C0 4.22792 0.447709 3.80233 0.999994 3.80233H3.58577L7.29286 0.27845C7.57885 0.00658503 8.00897 -0.0747487 8.38264 0.0723888Z" fill="white"/>
    <path fill-rule="evenodd" clip-rule="evenodd" d="M11.3101 4.29289C11.7236 3.90237 12.394 3.90237 12.8076 4.29289L14.1765 5.58577L15.5454 4.29289C15.9589 3.90237 16.6292 3.90237 17.0428 4.29289C17.4563 4.68342 17.4563 5.31658 17.0428 5.7071L15.6739 6.99998L17.0428 8.29287C17.4563 8.6834 17.4563 9.31656 17.0428 9.70709C16.6292 10.0976 15.9589 10.0976 15.5454 9.70709L14.1765 8.41419L12.8076 9.70709C12.394 10.0976 11.7236 10.0976 11.3101 9.70709C10.8966 9.31656 10.8966 8.6834 11.3101 8.29287L12.679 6.99998L11.3101 5.7071C10.8966 5.31658 10.8966 4.68342 11.3101 4.29289Z" fill="white"/> 
  </symbol>
</svg>