<svg width="70" height="70" viewBox="0 0 70 70" fill="none" xmlns="http://www.w3.org/2000/svg">
<rect width="70" height="70" rx="16" fill="white"/>
<g clip-path="url(#clip0_2294_129)">
<path d="M35 46.9948C41.6274 46.9948 47 41.6222 47 34.9948C47 28.3673 41.6274 22.9948 35 22.9948C28.3726 22.9948 23 28.3673 23 34.9948C23 41.6222 28.3726 46.9948 35 46.9948Z" fill="white"/>
<path d="M34.9995 23H55.7807C53.6749 19.3514 50.6456 16.3215 46.9974 14.215C43.3491 12.1086 39.2106 10.9997 34.9979 11C30.7852 11.0003 26.6468 12.1097 22.9989 14.2167C19.351 16.3237 16.3221 19.354 14.2168 23.0029L24.6074 41L24.6167 40.9976C23.5597 39.1749 23.0019 37.1057 22.9995 34.9987C22.9972 32.8917 23.5503 30.8212 24.6032 28.9961C25.6561 27.171 27.1715 25.6558 28.9968 24.6031C30.822 23.5504 32.8925 22.9974 34.9995 23Z" fill="url(#paint0_linear_2294_129)"/>
<path d="M35 44.5C40.2467 44.5 44.5 40.2467 44.5 35C44.5 29.7533 40.2467 25.5 35 25.5C29.7533 25.5 25.5 29.7533 25.5 35C25.5 40.2467 29.7533 44.5 35 44.5Z" fill="#1A73E8"/>
<path d="M45.391 41.0028L35.0004 59C39.2131 59.0005 43.3517 57.892 47 55.7857C50.6484 53.6795 53.6779 50.6499 55.784 47.0014C57.8901 43.353 58.9984 39.2143 58.9977 35.0017C58.9969 30.789 57.8871 26.6507 55.7797 23.0031H34.9986L34.9961 23.0124C37.1031 23.0083 39.174 23.5598 40.9999 24.6112C42.8259 25.6627 44.3424 27.1769 45.3965 29.0013C46.4506 30.8257 47.0052 32.8958 47.0042 35.0028C47.0032 37.1099 46.4468 39.1794 45.391 41.0028Z" fill="url(#paint1_linear_2294_129)"/>
<path d="M24.6089 41.0031L14.2183 23.006C12.1114 26.654 11.0021 30.7924 11.002 35.0051C11.0018 39.2178 12.1108 43.3563 14.2174 47.0044C16.324 50.6526 19.354 53.6818 23.0026 55.7875C26.6513 57.8932 30.7901 59.0012 35.0028 59L45.3934 41.0029L45.3867 40.9961C44.3366 42.8228 42.8236 44.3405 41 45.3961C39.1765 46.4516 37.1068 47.0078 34.9998 47.0085C32.8928 47.0092 30.8228 46.4544 28.9985 45.4001C27.1742 44.3458 25.6601 42.8291 24.6089 41.0031Z" fill="url(#paint2_linear_2294_129)"/>
</g>
<defs>
<linearGradient id="paint0_linear_2294_129" x1="14.2168" y1="26" x2="55.7807" y2="26" gradientUnits="userSpaceOnUse">
<stop stop-color="#D93025"/>
<stop offset="1" stop-color="#EA4335"/>
</linearGradient>
<linearGradient id="paint1_linear_2294_129" x1="31.7216" y1="58.6791" x2="52.5036" y2="22.6837" gradientUnits="userSpaceOnUse">
<stop stop-color="#FCC934"/>
<stop offset="1" stop-color="#FBBC04"/>
</linearGradient>
<linearGradient id="paint2_linear_2294_129" x1="37.5984" y1="57.5015" x2="16.8164" y2="21.506" gradientUnits="userSpaceOnUse">
<stop stop-color="#1E8E3E"/>
<stop offset="1" stop-color="#34A853"/>
</linearGradient>
<clipPath id="clip0_2294_129">
<rect width="48" height="48" fill="white" transform="translate(11 11)"/>
</clipPath>
</defs>
</svg>
