<svg width="70" height="70" viewBox="0 0 70 70" fill="none" xmlns="http://www.w3.org/2000/svg">
<g clip-path="url(#clip0_1467_81)">
<path d="M12.3958 5.64211e-06H57.6042C59.2324 -0.00156837 60.845 0.326206 62.3497 0.964571C63.8543 1.60293 65.2214 2.53936 66.3728 3.72024C67.5241 4.90113 68.4371 6.3033 69.0596 7.84651C69.682 9.38971 70.0015 11.0437 70 12.7137V57.2863C70.0015 58.9563 69.682 60.6103 69.0596 62.1535C68.4371 63.6967 67.5241 65.0989 66.3728 66.2798C65.2214 67.4606 63.8543 68.3971 62.3497 69.0354C60.845 69.6738 59.2324 70.0016 57.6042 70H12.3958C10.7676 70.0016 9.15497 69.6738 7.65034 69.0354C6.14572 68.3971 4.7786 67.4606 3.62724 66.2798C2.47587 65.0989 1.56286 63.6967 0.940456 62.1535C0.318051 60.6103 -0.00152916 58.9563 5.50105e-06 57.2863V12.7137C-0.00152916 11.0437 0.318051 9.38971 0.940456 7.84651C1.56286 6.3033 2.47587 4.90113 3.62724 3.72024C4.7786 2.53936 6.14572 1.60293 7.65034 0.964571C9.15497 0.326206 10.7676 -0.00156837 12.3958 5.64211e-06V5.64211e-06Z" fill="#000B1D"/>
<path d="M28.2917 56.35C32.3187 56.35 35.5833 53.0854 35.5833 49.0583V41.7667H28.2917C24.2646 41.7667 21 45.0313 21 49.0583C21 53.0854 24.2646 56.35 28.2917 56.35Z" fill="#0ACF83"/>
<path d="M21 34.475C21 30.4479 24.2646 27.1833 28.2917 27.1833H35.5833V41.7666H28.2917C24.2646 41.7666 21 38.502 21 34.475Z" fill="#A259FF"/>
<path d="M21 19.8916C21 15.8646 24.2646 12.6 28.2917 12.6H35.5833V27.1833H28.2917C24.2646 27.1833 21 23.9187 21 19.8916Z" fill="#F24E1E"/>
<path d="M35.583 12.6H42.8747C46.9018 12.6 50.1663 15.8646 50.1663 19.8916C50.1663 23.9187 46.9018 27.1833 42.8747 27.1833H35.583V12.6Z" fill="#FF7262"/>
<path d="M50.1663 34.475C50.1663 38.502 46.9018 41.7666 42.8747 41.7666C38.8476 41.7666 35.583 38.502 35.583 34.475C35.583 30.4479 38.8476 27.1833 42.8747 27.1833C46.9018 27.1833 50.1663 30.4479 50.1663 34.475Z" fill="#1ABCFE"/>
</g>
<defs>
<clipPath id="clip0_1467_81">
<rect width="70" height="70" fill="white"/>
</clipPath>
</defs>
</svg>
