<svg width="70" height="70" viewBox="0 0 70 70" fill="none" xmlns="http://www.w3.org/2000/svg">
<g clip-path="url(#clip0_1467_123)">
<path d="M12.3958 5.64211e-06L57.6042 5.64211e-06C59.2324 -0.00156837 60.845 0.326206 62.3497 0.964571C63.8543 1.60293 65.2214 2.53936 66.3728 3.72024C67.5241 4.90113 68.4371 6.3033 69.0595 7.84651C69.682 9.38971 70.0015 11.0437 70 12.7137V57.2863C70.0015 58.9563 69.682 60.6103 69.0595 62.1535C68.4371 63.6967 67.5241 65.0989 66.3728 66.2798C65.2214 67.4606 63.8543 68.3971 62.3497 69.0354C60.845 69.6738 59.2324 70.0016 57.6042 70H12.3958C10.7676 70.0016 9.15497 69.6738 7.65034 69.0354C6.14572 68.3971 4.7786 67.4606 3.62724 66.2798C2.47587 65.0989 1.56286 63.6967 0.940456 62.1535C0.318051 60.6103 -0.00152916 58.9563 5.50105e-06 57.2863L5.50105e-06 12.7137C-0.00152916 11.0437 0.318051 9.38971 0.940456 7.84651C1.56286 6.3033 2.47587 4.90113 3.62724 3.72024C4.7786 2.53936 6.14572 1.60293 7.65034 0.964571C9.15497 0.326206 10.7676 -0.00156837 12.3958 5.64211e-06V5.64211e-06Z" fill="#F0F0F0"/>
<path fill-rule="evenodd" clip-rule="evenodd" d="M34.9995 11.6483C21.778 11.6483 11.0566 22.3672 11.0566 35.5912C11.0566 46.1701 17.917 55.1446 27.4303 58.3109C28.6264 58.5329 29.0658 57.7915 29.0658 57.1591C29.0658 56.5882 29.0436 54.7021 29.0332 52.7014C22.3723 54.1498 20.9668 49.8765 20.9668 49.8765C19.8776 47.109 18.3083 46.3731 18.3083 46.3731C16.1356 44.8871 18.4721 44.9181 18.4721 44.9181C20.876 45.0866 22.1423 47.3854 22.1423 47.3854C24.2778 51.0449 27.7435 49.9871 29.1098 49.3757C29.3247 47.8282 29.9452 46.7716 30.6299 46.1737C25.3118 45.5691 19.721 43.5157 19.721 34.3414C19.721 31.7274 20.6567 29.5916 22.1883 27.9144C21.9393 27.3118 21.1198 24.8766 22.4199 21.5786C22.4199 21.5786 24.4301 20.9351 29.0055 24.0328C30.9158 23.5019 32.9644 23.2351 34.9995 23.226C37.0335 23.2351 39.0833 23.5012 40.9972 24.032C45.567 20.9343 47.5748 21.5778 47.5748 21.5778C48.8781 24.8754 48.0585 27.311 47.8099 27.9136C49.3451 29.5908 50.2741 31.7266 50.2741 34.3406C50.2741 43.5367 44.673 45.5612 39.3414 46.1543C40.2006 46.8973 40.9658 48.3548 40.9658 50.5882C40.9658 53.7918 40.9381 56.3701 40.9381 57.1587C40.9381 57.7959 41.3695 58.5424 42.5827 58.3073C52.0904 55.1378 58.9428 46.1662 58.9428 35.5912C58.9424 22.368 48.2223 11.6487 34.9995 11.6487V11.6483Z" fill="#181616"/>
<path d="M20.125 46.0246C20.0723 46.1436 19.8852 46.1793 19.7147 46.098C19.5402 46.0203 19.4431 45.8581 19.4994 45.7388C19.5509 45.6158 19.7385 45.5821 19.9117 45.6642C20.0862 45.7423 20.1853 45.9061 20.1247 46.025L20.125 46.0246ZM21.0949 47.1066C20.9811 47.2125 20.7578 47.1633 20.6064 46.9956C20.4494 46.8291 20.42 46.6059 20.5362 46.4984C20.6544 46.393 20.8708 46.4429 21.0278 46.6094C21.1841 46.7783 21.215 46.9996 21.0952 47.107L21.0949 47.1066ZM22.0393 48.4852C21.8926 48.5875 21.6523 48.4919 21.504 48.279C21.3573 48.0657 21.3573 47.81 21.508 47.7081C21.6559 47.6058 21.8926 47.6982 22.0432 47.9091C22.1891 48.1252 22.1891 48.3809 22.0393 48.4848V48.4852ZM23.3322 49.8178C23.2014 49.9625 22.9215 49.9237 22.7169 49.7266C22.5079 49.5335 22.4496 49.2587 22.5809 49.1144C22.7141 48.9693 22.9952 49.0098 23.201 49.2056C23.4099 49.3983 23.473 49.6735 23.333 49.8174L23.3322 49.8178ZM25.1164 50.5913C25.0581 50.7789 24.7893 50.8641 24.5177 50.784C24.2469 50.702 24.0697 50.4827 24.1252 50.2932C24.1807 50.1041 24.4515 50.0156 24.7247 50.1009C24.9955 50.1826 25.1727 50.4006 25.1164 50.5913ZM27.0762 50.7345C27.083 50.9319 26.853 51.0953 26.5687 51.0992C26.2821 51.106 26.0501 50.9458 26.0473 50.7515C26.0473 50.5521 26.2725 50.3907 26.5588 50.3852C26.8431 50.38 27.0766 50.5386 27.0766 50.7341L27.0762 50.7345ZM28.8992 50.4244C28.9333 50.6167 28.7355 50.8146 28.4528 50.8673C28.1753 50.9188 27.9176 50.7991 27.8819 50.6084C27.8478 50.4109 28.0492 50.2131 28.3267 50.1619C28.6098 50.1132 28.8636 50.2293 28.8992 50.4248V50.4244Z" fill="#181616"/>
</g>
<defs>
<clipPath id="clip0_1467_123">
<rect width="70" height="70" fill="white"/>
</clipPath>
</defs>
</svg>
