<svg width="70" height="70" viewBox="0 0 70 70" fill="none" xmlns="http://www.w3.org/2000/svg">
<rect width="70" height="70" rx="16" fill="white"/>
<mask id="mask0_2294_134" style="mask-type:luminance" maskUnits="userSpaceOnUse" x="11" y="10" width="48" height="50">
<path d="M59 10H11V60H59V10Z" fill="white"/>
</mask>
<g mask="url(#mask0_2294_134)">
<path d="M14.0173 12.1503L41.7635 10.115C45.1704 9.82324 46.048 10.0199 48.1894 11.5702L57.0458 17.7779C58.5069 18.8447 58.995 19.1365 58.995 20.3V54.3457C58.995 56.4794 58.2143 57.7412 55.4895 57.9346L23.27 59.8732C21.2239 59.9699 20.251 59.6799 19.1794 58.3213L12.6549 49.8816C11.4848 48.3297 11 47.1678 11 45.8076V15.5442C11 13.8006 11.779 12.3437 14.0173 12.152V12.1503Z" fill="white"/>
<path fill-rule="evenodd" clip-rule="evenodd" d="M41.7635 10.1137L14.0173 12.1524C11.779 12.3441 11 13.801 11 15.5446V45.808C11 47.1682 11.4848 48.3301 12.6549 49.882L19.1778 58.3218C20.2476 59.6803 21.2222 59.972 23.2683 59.872L55.4895 57.9334C58.2143 57.74 58.995 56.4781 58.995 54.3444V20.2988C58.995 19.1952 58.557 18.8769 57.2665 17.9384C57.1929 17.8845 57.1193 17.8306 57.0458 17.7767L48.1894 11.569C46.048 10.0187 45.1687 9.82202 41.7635 10.1137ZM23.9988 19.7403C21.3676 19.917 20.7708 19.957 19.2764 18.7468L15.4767 15.7397C15.0889 15.3513 15.2845 14.8662 16.2574 14.7712L42.932 12.8309C45.1704 12.6358 46.3389 13.4143 47.2148 14.0911L51.7901 17.3899C51.984 17.4866 52.4705 18.0684 51.8871 18.0684L24.3382 19.7187L23.9988 19.7403ZM20.9297 54.0527V25.1479C20.9297 23.8877 21.3191 23.3059 22.4876 23.2076L54.1254 21.3656C55.1987 21.2689 55.6851 21.949 55.6851 23.2076V51.9174C55.6851 53.1809 55.4895 54.2478 53.7359 54.3444L23.4622 56.0914C21.707 56.1881 20.9297 55.608 20.9297 54.0527ZM50.8189 26.6982C51.0128 27.5733 50.8189 28.4468 49.9396 28.5451L48.4819 28.8352V50.1721C47.2148 50.8522 46.0463 51.2389 45.0734 51.2389C43.5154 51.2389 43.1259 50.7555 41.9574 49.3003L32.4173 34.3644V48.8168L35.4363 49.4953C35.4363 49.4953 35.4363 51.2406 32.999 51.2406L26.284 51.629C26.0884 51.2406 26.284 50.2704 26.966 50.0771L28.7179 49.5937V30.4821L26.284 30.2871C26.0901 29.4136 26.5748 28.1534 27.9389 28.0567L35.1438 27.5733L45.0734 42.7042V29.3186L42.5425 29.0286C42.3469 27.96 43.1259 27.1832 44.0988 27.0882L50.8189 26.6982Z" fill="black"/>
</g>
</svg>
