<svg width="70" height="70" viewBox="0 0 70 70" fill="none" xmlns="http://www.w3.org/2000/svg">
<rect width="70" height="70" rx="16" fill="#151616"/>
<path d="M57.8619 16.1165L47.8582 11.3C46.7003 10.7425 45.3165 10.9776 44.4078 11.8864L11.66 41.7448C10.7792 42.5478 10.7802 43.9346 11.6622 44.7364L14.3371 47.1682C15.0582 47.8237 16.1442 47.872 16.9205 47.283L56.3564 17.366C57.6796 16.3624 59.5798 17.306 59.5798 18.9666V18.8505C59.5798 17.6848 58.9121 16.6222 57.8619 16.1165Z" fill="#0065A9"/>
<g filter="url(#filter0_d_2294_135)">
<path d="M57.8619 54.1835L47.8582 59C46.7003 59.5576 45.3165 59.3224 44.4078 58.4136L11.66 28.5553C10.7792 27.7522 10.7802 26.3654 11.6622 25.5636L14.3371 23.1318C15.0582 22.4763 16.1442 22.428 16.9205 23.017L56.3564 52.934C57.6796 53.9376 59.5798 52.994 59.5798 51.3334V51.4495C59.5798 52.6152 58.9121 53.6778 57.8619 54.1835Z" fill="#007ACC"/>
</g>
<g filter="url(#filter1_d_2294_135)">
<path d="M47.8591 59.001C46.7008 59.5582 45.317 59.3225 44.4082 58.4137C45.528 59.5334 47.4426 58.7404 47.4426 57.1568V13.1432C47.4426 11.5596 45.528 10.7665 44.4082 11.8863C45.317 10.9775 46.7008 10.742 47.8591 11.299L57.8609 16.1089C58.9119 16.6143 59.5802 17.6773 59.5802 18.8435V51.4566C59.5802 52.6228 58.9119 53.6858 57.8608 54.1912L47.8591 59.001Z" fill="#1F9CF0"/>
</g>
<g style="mix-blend-mode:overlay" opacity="0.25">
<path style="mix-blend-mode:overlay" fill-rule="evenodd" clip-rule="evenodd" d="M45.428 59.0936C46.1926 59.3915 47.0646 59.3724 47.8363 59.0011L57.832 54.1913C58.8824 53.6859 59.5503 52.6229 59.5503 51.4567V18.8436C59.5503 17.6774 58.8824 16.6143 57.8321 16.1089L47.8363 11.299C46.8235 10.8117 45.638 10.931 44.749 11.5773C44.6221 11.6697 44.5011 11.7727 44.3876 11.8863L25.252 29.3441L16.9169 23.0171C16.141 22.4281 15.0557 22.4764 14.3351 23.1319L11.6618 25.5637C10.7803 26.3655 10.7793 27.7523 11.6596 28.5554L18.888 35.15L11.6596 41.7447C10.7793 42.5478 10.7803 43.9346 11.6618 44.7364L14.3351 47.1682C15.0557 47.8237 16.141 47.872 16.9169 47.283L25.252 40.956L44.3876 58.4137C44.6903 58.7166 45.0457 58.9447 45.428 59.0936ZM47.4201 24.1286L32.9006 35.15L47.4201 46.1715V24.1286Z" fill="url(#paint0_linear_2294_135)"/>
</g>
<defs>
<filter id="filter0_d_2294_135" x="2.66666" y="14.2724" width="65.2468" height="53.3605" filterUnits="userSpaceOnUse" color-interpolation-filters="sRGB">
<feFlood flood-opacity="0" result="BackgroundImageFix"/>
<feColorMatrix in="SourceAlpha" type="matrix" values="0 0 0 0 0 0 0 0 0 0 0 0 0 0 0 0 0 0 127 0" result="hardAlpha"/>
<feOffset/>
<feGaussianBlur stdDeviation="4.16667"/>
<feColorMatrix type="matrix" values="0 0 0 0 0 0 0 0 0 0 0 0 0 0 0 0 0 0 0.25 0"/>
<feBlend mode="overlay" in2="BackgroundImageFix" result="effect1_dropShadow_2294_135"/>
<feBlend mode="normal" in="SourceGraphic" in2="effect1_dropShadow_2294_135" result="shape"/>
</filter>
<filter id="filter1_d_2294_135" x="36.0749" y="2.66666" width="31.8386" height="64.9667" filterUnits="userSpaceOnUse" color-interpolation-filters="sRGB">
<feFlood flood-opacity="0" result="BackgroundImageFix"/>
<feColorMatrix in="SourceAlpha" type="matrix" values="0 0 0 0 0 0 0 0 0 0 0 0 0 0 0 0 0 0 127 0" result="hardAlpha"/>
<feOffset/>
<feGaussianBlur stdDeviation="4.16667"/>
<feColorMatrix type="matrix" values="0 0 0 0 0 0 0 0 0 0 0 0 0 0 0 0 0 0 0.25 0"/>
<feBlend mode="overlay" in2="BackgroundImageFix" result="effect1_dropShadow_2294_135"/>
<feBlend mode="normal" in="SourceGraphic" in2="effect1_dropShadow_2294_135" result="shape"/>
</filter>
<linearGradient id="paint0_linear_2294_135" x1="35.2752" y1="11" x2="35.2752" y2="59.3001" gradientUnits="userSpaceOnUse">
<stop stop-color="white"/>
<stop offset="1" stop-color="white" stop-opacity="0"/>
</linearGradient>
</defs>
</svg>
