<svg width="81" height="81" viewBox="0 0 81 81" fill="none" xmlns="http://www.w3.org/2000/svg">
<g clip-path="url(#clip0_317_38)">
<path d="M14.4511 0.284674H66.1178C67.9786 0.282876 69.8216 0.657475 71.5412 1.38703C73.2607 2.11659 74.8232 3.18679 76.139 4.53638C77.4549 5.88596 78.4983 7.48844 79.2096 9.2521C79.9209 11.0158 80.2862 12.906 80.2844 14.8146V65.7547C80.2862 67.6634 79.9209 69.5536 79.2096 71.3172C78.4983 73.0809 77.4549 74.6834 76.139 76.033C74.8232 77.3825 73.2607 78.4527 71.5412 79.1823C69.8216 79.9119 67.9786 80.2865 66.1178 80.2847H14.4511C12.5902 80.2865 10.7472 79.9119 9.02767 79.1823C7.3081 78.4527 5.74568 77.3825 4.42984 76.033C3.11399 74.6834 2.07055 73.0809 1.35923 71.3172C0.647911 69.5536 0.282676 67.6634 0.28443 65.7547V14.8146C0.282676 12.906 0.647911 11.0158 1.35923 9.2521C2.07055 7.48844 3.11399 5.88596 4.42984 4.53638C5.74568 3.18679 7.3081 2.11659 9.02767 1.38703C10.7472 0.657475 12.5902 0.282876 14.4511 0.284674V0.284674Z" fill="#F0F0F0"/>
<path d="M68.0991 20.5732L41.7931 67.5538C41.25 68.5237 39.8546 68.5294 39.3033 67.5642L12.4757 20.5777C11.8751 19.5258 12.7757 18.2517 13.9692 18.4647L40.3034 23.1659C40.4714 23.1959 40.6434 23.1956 40.8113 23.165L66.5948 18.4715C67.7843 18.2549 68.6892 19.5192 68.0991 20.5732Z" fill="url(#paint0_linear_317_38)"/>
<path d="M52.8477 12.2985L33.3804 16.1082C33.0605 16.1708 32.8236 16.4416 32.8043 16.7666L31.6068 36.9661C31.5786 37.4419 32.0161 37.8111 32.481 37.704L37.901 36.4548C38.4081 36.338 38.8663 36.7841 38.7621 37.2934L37.1518 45.1686C37.0434 45.6987 37.5417 46.1519 38.0599 45.9947L41.4076 44.9789C41.9265 44.8215 42.4252 45.276 42.3154 45.8065L39.7564 58.1768C39.5963 58.9505 40.6268 59.3725 41.0566 58.7091L41.3437 58.266L57.2066 26.6484C57.4723 26.119 57.0142 25.5154 56.432 25.6276L50.8531 26.703C50.3288 26.8039 49.8828 26.3163 50.0307 25.804L53.672 13.197C53.8201 12.6838 53.3725 12.1958 52.8477 12.2985Z" fill="url(#paint1_linear_317_38)"/>
</g>
<defs>
<linearGradient id="paint0_linear_317_38" x1="11.8207" y1="16.7857" x2="44.5072" y2="61.2325" gradientUnits="userSpaceOnUse">
<stop stop-color="#41D1FF"/>
<stop offset="1" stop-color="#BD34FE"/>
</linearGradient>
<linearGradient id="paint1_linear_317_38" x1="38.7918" y1="13.3328" x2="44.6997" y2="53.9115" gradientUnits="userSpaceOnUse">
<stop stop-color="#FFEA83"/>
<stop offset="0.0833333" stop-color="#FFDD35"/>
<stop offset="1" stop-color="#FFA800"/>
</linearGradient>
<clipPath id="clip0_317_38">
<rect width="80" height="80" fill="white" transform="translate(0.284424 0.284668)"/>
</clipPath>
</defs>
</svg>
