<svg width="150" height="150" viewBox="0 0 150 150" fill="none" xmlns="http://www.w3.org/2000/svg">
<rect width="150" height="150" rx="75" fill="white"/>
<path d="M26.2817 46.8359H48.3848C52.7051 46.8359 56.4596 47.4788 59.6484 48.7646C62.8372 50.0505 65.2931 51.9535 67.0161 54.4736C68.7648 56.9938 69.6392 60.1055 69.6392 63.8086C69.6392 67.0231 69.1377 69.7104 68.1348 71.8706C67.1318 74.0308 65.7303 75.818 63.9302 77.2324C62.1558 78.6211 60.0856 79.7655 57.7197 80.6655L53.2837 83.1729H34.7295L34.6523 72.7192H48.3848C50.1077 72.7192 51.535 72.4106 52.6665 71.7935C53.798 71.1763 54.6466 70.3019 55.2124 69.1704C55.8039 68.0132 56.0996 66.6374 56.0996 65.043C56.0996 63.4229 55.8039 62.0342 55.2124 60.877C54.6209 59.7197 53.7466 58.8325 52.5894 58.2153C51.4578 57.5981 50.0563 57.2896 48.3848 57.2896H39.8213V103H26.2817V46.8359ZM57.0254 103L44.6045 78.1582L58.9541 78.0811L71.5293 102.421V103H57.0254ZM123.759 72.9893V96.0566C122.807 97.111 121.341 98.2425 119.361 99.4512C117.407 100.634 114.938 101.65 111.955 102.499C108.972 103.347 105.462 103.771 101.424 103.771C97.6955 103.771 94.3138 103.18 91.2793 101.997C88.2448 100.788 85.6346 99.0269 83.4487 96.7124C81.2886 94.3722 79.617 91.5177 78.4341 88.1489C77.2769 84.7544 76.6982 80.8713 76.6982 76.4995V73.375C76.6982 69.0033 77.2897 65.1201 78.4727 61.7256C79.6556 58.3311 81.3143 55.4766 83.4487 53.1621C85.6089 50.8219 88.1419 49.0475 91.0479 47.8389C93.9795 46.6302 97.194 46.0259 100.691 46.0259C105.86 46.0259 110.065 46.8488 113.305 48.4946C116.545 50.1147 119.001 52.3649 120.673 55.2451C122.344 58.0996 123.36 61.4041 123.72 65.1587H110.721C110.464 63.3071 109.975 61.7384 109.255 60.4526C108.561 59.1411 107.558 58.151 106.246 57.4824C104.935 56.7881 103.237 56.4409 101.154 56.4409C99.5342 56.4409 98.0555 56.7881 96.7183 57.4824C95.4067 58.1768 94.2881 59.2311 93.3623 60.6455C92.4365 62.0342 91.7165 63.7829 91.2021 65.8916C90.7135 68.0003 90.4692 70.4691 90.4692 73.2979V76.4995C90.4692 79.3026 90.7007 81.7585 91.1636 83.8672C91.6522 85.9759 92.3722 87.7375 93.3237 89.1519C94.3009 90.5405 95.5353 91.5949 97.0269 92.3149C98.5441 93.0093 100.331 93.3564 102.389 93.3564C103.829 93.3564 105.063 93.2407 106.092 93.0093C107.12 92.7521 107.969 92.4435 108.638 92.0835C109.332 91.6978 109.859 91.3377 110.219 91.0034V82.2856H100.807V72.9893H123.759Z" fill="black"/>
</svg>
