<svg width="86" height="86" viewBox="0 0 86 86" fill="none" xmlns="http://www.w3.org/2000/svg">
<rect width="86" height="86" rx="20" fill="#111111"/>
<g clip-path="url(#clip0_64_126)">
<path fill-rule="evenodd" clip-rule="evenodd" d="M23.2176 30.0074V67.1905H32.1584V48.8823H41.6085L51.8 67.1905L62.6416 67.2617L51.3439 47.5152C51.8116 47.3062 52.2687 47.0733 52.7152 46.8164C55.1558 45.3916 57.08 43.4919 58.488 41.1173C59.943 38.6952 60.6704 36.0594 60.6704 33.2099C60.6704 30.2179 59.943 27.5346 58.488 25.16C57.08 22.7379 55.1558 20.8382 52.7152 19.461C50.2746 18.0362 47.576 17.3238 44.6192 17.3238H23.2176V25.6587H32.1584H43.0704C44.713 25.6587 46.168 25.9911 47.4352 26.656C48.7024 27.3209 49.688 28.2232 50.392 29.363C51.096 30.5029 51.448 31.8564 51.448 33.4236C51.448 34.8009 51.1664 36.0594 50.6032 37.1992C50.04 38.339 49.2422 39.2414 48.2096 39.9063C47.224 40.5237 46.0506 40.8324 44.6896 40.8324H32.1584V30.0074H23.2176Z" fill="white"/>
</g>
<defs>
<clipPath id="clip0_64_126">
<rect width="40" height="51" fill="white" transform="translate(23 17)"/>
</clipPath>
</defs>
</svg>
