<svg width="86" height="86" viewBox="0 0 86 86" fill="none" xmlns="http://www.w3.org/2000/svg">
<g clip-path="url(#clip0_2098_118)">
<rect width="86" height="86" rx="20" fill="white"/>
<path d="M20.272 76V14.4H47.024C50.72 14.4 54.0933 15.28 57.144 17.04C60.1947 18.7413 62.6 21.088 64.36 24.08C66.1787 27.0133 67.088 30.328 67.088 34.024C67.088 37.544 66.1787 40.8 64.36 43.792C62.6 46.7253 60.1947 49.072 57.144 50.832C54.152 52.5333 50.7787 53.384 47.024 53.384H31.448V76H20.272ZM56 76L40.336 48.192L52.128 45.992L69.552 76.088L56 76ZM31.448 43.44H47.112C48.8133 43.44 50.28 43.0587 51.512 42.296C52.8027 41.4747 53.8 40.36 54.504 38.952C55.208 37.544 55.56 35.9893 55.56 34.288C55.56 32.352 55.12 30.68 54.24 29.272C53.36 27.864 52.128 26.7493 50.544 25.928C48.96 25.1067 47.1413 24.696 45.088 24.696H31.448V43.44Z" fill="#111111"/>
<mask id="path-3-outside-1_2098_118" maskUnits="userSpaceOnUse" x="17" y="24" width="19" height="6" fill="black">
<rect fill="white" x="17" y="24" width="19" height="6"/>
<path d="M17 25H36V30H17V25Z"/>
</mask>
<path d="M17 25H36V30H17V25Z" fill="white"/>
<path d="M17 25.3H36V24.7H17V25.3Z" fill="white" mask="url(#path-3-outside-1_2098_118)"/>
</g>
<defs>
<clipPath id="clip0_2098_118">
<rect width="86" height="86" rx="20" fill="white"/>
</clipPath>
</defs>
</svg>
