<svg width="48" height="48" viewBox="0 0 48 48" fill="none" xmlns="http://www.w3.org/2000/svg">
<rect width="48" height="48" rx="11" fill="white"/>
<g clip-path="url(#clip0_97_120)">
<path fill-rule="evenodd" clip-rule="evenodd" d="M11.2931 16.3333V41.6666H17.3347V28.988H23.7204L30.6071 41.6666L37.9331 41.716L30.2989 28.0413C30.615 27.8965 30.9239 27.7352 31.2256 27.5573C32.8747 26.5706 34.175 25.2551 35.1264 23.6106C36.1096 21.9333 36.6011 20.108 36.6011 18.1346C36.6011 16.0626 36.1096 14.2044 35.1264 12.56C34.175 10.8826 32.8747 9.56708 31.2256 8.6133C29.5764 7.62663 27.7528 7.1333 25.7548 7.1333H11.2931V12.9053H17.3347H24.7083C25.8183 12.9053 26.8014 13.1355 27.6577 13.596C28.514 14.0564 29.18 14.6813 29.6557 15.4706C30.1314 16.26 30.3693 17.1973 30.3693 18.2826C30.3693 19.2364 30.179 20.108 29.7984 20.8973C29.4179 21.6866 28.8787 22.3115 28.181 22.772C27.515 23.1995 26.7221 23.4133 25.8024 23.4133H17.3347V16.3333H11.2931Z" fill="#111111"/>
</g>
<defs>
<clipPath id="clip0_97_120">
<rect width="27" height="35" fill="white" transform="translate(11 7)"/>
</clipPath>
</defs>
</svg>
