<svg width="81" height="81" viewBox="0 0 81 81" fill="none" xmlns="http://www.w3.org/2000/svg">
<g clip-path="url(#clip0_1461_16600)">
<path d="M14.8981 0.731452L66.5648 0.731452C68.4257 0.729653 70.2686 1.10425 71.9882 1.83381C73.7078 2.56337 75.2702 3.63357 76.586 4.98315C77.9019 6.33274 78.9453 7.93522 79.6566 9.69888C80.368 11.4625 80.7332 13.3528 80.7314 15.2614L80.7314 66.2015C80.7332 68.1101 80.368 70.0003 79.6566 71.764C78.9453 73.5277 77.9019 75.1302 76.586 76.4797C75.2702 77.8293 73.7078 78.8995 71.9882 79.6291C70.2686 80.3586 68.4257 80.7332 66.5648 80.7314L14.8981 80.7314C13.0372 80.7332 11.1943 80.3586 9.47469 79.6291C7.75512 78.8995 6.19271 77.8293 4.87686 76.4797C3.56101 75.1302 2.51757 73.5277 1.80625 71.764C1.09493 70.0003 0.729698 68.1101 0.731452 66.2015L0.731452 15.2614C0.729698 13.3528 1.09493 11.4625 1.80625 9.69888C2.51757 7.93522 3.56101 6.33274 4.87686 4.98315C6.19271 3.63357 7.75512 2.56337 9.47469 1.83381C11.1943 1.10425 13.0372 0.729653 14.8981 0.731452V0.731452Z" fill="white"/>
<path fill-rule="evenodd" clip-rule="evenodd" d="M40.7315 14.0437C25.6211 14.0437 13.3682 26.2939 13.3682 41.407C13.3682 53.4973 21.2086 63.7538 32.0809 67.3724C33.4479 67.6262 33.95 66.7788 33.95 66.0561C33.95 65.4036 33.9246 63.2481 33.9129 60.9616C26.3004 62.6169 24.694 57.7331 24.694 57.7331C23.4493 54.5703 21.6558 53.7293 21.6558 53.7293C19.1727 52.031 21.843 52.0663 21.843 52.0663C24.5903 52.2589 26.0375 54.8861 26.0375 54.8861C28.4781 59.0685 32.4388 57.8595 34.0003 57.1608C34.2459 55.3923 34.955 54.1847 35.7376 53.5014C29.6598 52.8104 23.2703 50.4636 23.2703 39.9788C23.2703 36.9913 24.3397 34.5503 26.0901 32.6336C25.8055 31.9449 24.8689 29.1618 26.3547 25.3927C26.3547 25.3927 28.6521 24.6572 33.8811 28.1975C36.0643 27.5908 38.4056 27.2858 40.7315 27.2754C43.056 27.2858 45.3987 27.5899 47.5859 28.1966C52.8086 24.6563 55.1032 25.3918 55.1032 25.3918C56.5927 29.1604 55.6561 31.944 55.3719 32.6327C57.1264 34.5494 58.1881 36.9904 58.1881 39.9779C58.1881 50.4876 51.7868 52.8013 45.6936 53.4792C46.6756 54.3283 47.5501 55.994 47.5501 58.5465C47.5501 62.2077 47.5184 65.1544 47.5184 66.0557C47.5184 66.7838 48.0114 67.6371 49.3979 67.3684C60.2639 63.7461 68.0952 53.4928 68.0952 41.407C68.0948 26.2948 55.8432 14.0442 40.7315 14.0442V14.0437Z" fill="#181616"/>
<path d="M23.7323 53.331C23.6721 53.4669 23.4582 53.5077 23.2634 53.4148C23.064 53.326 22.953 53.1407 23.0173 53.0043C23.0762 52.8638 23.2905 52.8253 23.4886 52.9191C23.6879 53.0084 23.8012 53.1955 23.7319 53.3315L23.7323 53.331ZM24.8407 54.5676C24.7106 54.6886 24.4555 54.6324 24.2824 54.4407C24.103 54.2504 24.0695 53.9953 24.2022 53.8725C24.3373 53.752 24.5847 53.809 24.7641 53.9994C24.9426 54.1924 24.978 54.4452 24.8411 54.568L24.8407 54.5676ZM25.92 56.1431C25.7524 56.26 25.4778 56.1508 25.3083 55.9075C25.1407 55.6637 25.1407 55.3714 25.3128 55.255C25.4819 55.1381 25.7524 55.2436 25.9246 55.4847C26.0913 55.7317 26.0913 56.0239 25.92 56.1426V56.1431ZM27.3977 57.666C27.2481 57.8314 26.9282 57.787 26.6944 57.5618C26.4556 57.3412 26.389 57.0271 26.539 56.8622C26.6912 56.6964 27.0125 56.7426 27.2477 56.9664C27.4865 57.1866 27.5585 57.5011 27.3986 57.6656L27.3977 57.666ZM29.4367 58.5501C29.3701 58.7644 29.0629 58.8618 28.7525 58.7703C28.443 58.6765 28.2405 58.4259 28.3039 58.2093C28.3674 57.9932 28.6768 57.8922 28.989 57.9896C29.2985 58.0829 29.5011 58.3321 29.4367 58.5501ZM31.6765 58.7137C31.6842 58.9393 31.4214 59.126 31.0965 59.1305C30.7689 59.1383 30.5038 58.9552 30.5007 58.7332C30.5007 58.5052 30.758 58.3208 31.0852 58.3145C31.4101 58.3086 31.677 58.4898 31.677 58.7132L31.6765 58.7137ZM33.76 58.3593C33.799 58.5791 33.5729 58.8052 33.2498 58.8655C32.9326 58.9244 32.6381 58.7875 32.5973 58.5696C32.5583 58.3439 32.7885 58.1178 33.1057 58.0594C33.4292 58.0036 33.7192 58.1364 33.76 58.3598V58.3593Z" fill="#181616"/>
</g>
<defs>
<clipPath id="clip0_1461_16600">
<rect width="80" height="80" fill="white" transform="translate(0.731445 0.731445)"/>
</clipPath>
</defs>
</svg>
