<svg width="30" height="24" viewBox="0 0 30 24" fill="none" xmlns="http://www.w3.org/2000/svg">
<path d="M0 5.33334H25.2C26.8802 5.33334 27.7202 5.33334 28.362 5.66032C28.9265 5.94794 29.3854 6.40689 29.673 6.97137C30 7.61311 30 8.45319 30 10.1333V18.8667C30 20.5468 30 21.3869 29.673 22.0286C29.3854 22.5931 28.9265 23.0521 28.362 23.3397C27.7202 23.6667 26.8802 23.6667 25.2 23.6667H4.8C3.11984 23.6667 2.27976 23.6667 1.63803 23.3397C1.07354 23.0521 0.614601 22.5931 0.32698 22.0286C0 21.3869 0 20.5468 0 18.8667V5.33334Z" fill="white"/>
<path d="M0 4.33334C0 2.44773 0 1.50492 0.585786 0.91913C1.17157 0.333344 2.11438 0.333344 4 0.333344H10.0098C10.8273 0.333344 11.2361 0.333344 11.6036 0.485584C11.9711 0.637825 12.2602 0.926856 12.8382 1.50492L16.6667 5.33334H0V4.33334Z" fill="white"/>
</svg>
