<svg width="28" height="36" viewBox="0 0 28 36" fill="none" xmlns="http://www.w3.org/2000/svg">
<path d="M19.8335 5.33334C22.1743 5.33334 23.3447 5.33334 24.1854 5.89511C24.5494 6.13831 24.8619 6.45081 25.1051 6.81478C25.6668 7.65552 25.6668 8.82591 25.6668 11.1667V27C25.6668 30.1427 25.6668 31.7141 24.6905 32.6904C23.7142 33.6667 22.1429 33.6667 19.0002 33.6667H9.00016C5.85747 33.6667 4.28612 33.6667 3.30981 32.6904C2.3335 31.7141 2.3335 30.1427 2.3335 27V11.1667C2.3335 8.82591 2.3335 7.65552 2.89526 6.81478C3.13846 6.45081 3.45096 6.13831 3.81493 5.89511C4.65567 5.33334 5.82606 5.33334 8.16683 5.33334" stroke="white" stroke-width="3"/>
<path d="M9 5.33333C9 3.49238 10.4924 2 12.3333 2H15.6667C17.5076 2 19 3.49238 19 5.33333C19 7.17428 17.5076 8.66667 15.6667 8.66667H12.3333C10.4924 8.66667 9 7.17428 9 5.33333Z" stroke="white" stroke-width="3"/>
<path d="M9 17L19 17" stroke="white" stroke-width="3" stroke-linecap="round"/>
<path d="M9 23.6667L15.6667 23.6667" stroke="white" stroke-width="3" stroke-linecap="round"/>
</svg>
