<svg width="40" height="40" viewBox="0 0 40 40" fill="none" xmlns="http://www.w3.org/2000/svg">
<rect width="40" height="40" rx="20" fill="url(#paint0_linear_2103_1075)"/>
<path fill-rule="evenodd" clip-rule="evenodd" d="M11 14.5V30.9686H15.0821V22.903H19.3968L24.05 30.9686L29 31L23.8418 22.3007C24.0553 22.2087 24.264 22.106 24.4679 21.9929C25.5822 21.3652 26.4607 20.5283 27.1036 19.4822C27.7679 18.4151 28.1 17.2539 28.1 15.9986C28.1 14.6805 27.7679 13.4983 27.1036 12.4522C26.4607 11.3852 25.5822 10.5483 24.4679 9.94151C23.3536 9.31384 22.1214 9 20.7714 9H11V12.6719H15.0821H20.0643C20.8143 12.6719 21.4786 12.8184 22.0571 13.1113C22.6357 13.4042 23.0857 13.8017 23.4071 14.3039C23.7286 14.806 23.8893 15.4023 23.8893 16.0927C23.8893 16.6995 23.7607 17.2539 23.5036 17.7561C23.2464 18.2582 22.8822 18.6557 22.4107 18.9486C21.9607 19.2206 21.425 19.3566 20.8036 19.3566H15.0821V14.5H11Z" fill="#111111"/>
<defs>
<linearGradient id="paint0_linear_2103_1075" x1="0" y1="20" x2="40" y2="20" gradientUnits="userSpaceOnUse">
<stop stop-color="#43E97B"/>
<stop offset="1" stop-color="#38F9D7"/>
</linearGradient>
</defs>
</svg>
