<svg width="18" height="14" viewBox="0 0 18 14" fill="none" xmlns="http://www.w3.org/2000/svg">
<path fill-rule="evenodd" clip-rule="evenodd" d="M8.38264 0.418214C8.75632 0.56534 8.99995 0.911956 8.99995 1.29643V12.7033C8.99995 13.0878 8.75632 13.4344 8.38264 13.5815C8.00897 13.7288 7.57885 13.6474 7.29286 13.3755L3.58577 9.8516H0.999994C0.447709 9.8516 0 9.42598 0 8.90105V5.09874C0 4.57375 0.447709 4.14816 0.999994 4.14816H3.58577L7.29286 0.624275C7.57885 0.35241 8.00897 0.271077 8.38264 0.418214Z" fill="white"/>
<path fill-rule="evenodd" clip-rule="evenodd" d="M13.6575 0.278418C14.048 -0.092806 14.6811 -0.092806 15.0716 0.278418C16.8802 1.99758 18.0006 4.37533 18.0006 7.00002C18.0006 9.62473 16.8802 12.0025 15.0716 13.7216C14.6811 14.0928 14.048 14.0928 13.6575 13.7216C13.2669 13.3504 13.2669 12.7486 13.6575 12.3772C15.1062 11.0001 16.0006 9.10024 16.0006 7.00002C16.0006 4.89979 15.1062 2.99994 13.6575 1.62274C13.2669 1.25151 13.2669 0.649642 13.6575 0.278418ZM10.829 2.96705C11.2195 2.59583 11.8528 2.59583 12.2433 2.96705C12.7691 3.46695 13.1983 4.0598 13.5009 4.71828C13.8226 5.41822 14.0006 6.19062 14.0006 7.00002C14.0006 8.57472 13.3279 10.0019 12.2433 11.033C11.8528 11.4042 11.2195 11.4042 10.829 11.033C10.4385 10.6617 10.4385 10.0599 10.829 9.68866C11.554 8.99954 12.0006 8.05025 12.0006 7.00002C12.0006 6.45749 11.8816 5.94388 11.6683 5.47944C11.4669 5.04148 11.1808 4.64574 10.829 4.31137C10.4385 3.94015 10.4385 3.33828 10.829 2.96705Z" fill="white"/>
</svg>
