<svg width="18" height="18" viewBox="0 0 18 18" fill="none" xmlns="http://www.w3.org/2000/svg">
<g clip-path="url(#clip0_1499_315)">
<path fill-rule="evenodd" clip-rule="evenodd" d="M1.5 6.00195C0.671573 6.00195 0 6.67353 0 7.50195V16.502C0 17.3304 0.671573 18.002 1.5 18.002H16.5C17.3284 18.002 18 17.3304 18 16.502V7.50195C18 6.67353 17.3284 6.00195 16.5 6.00195H1.5ZM7.12562 10.1271C7.12562 9.55121 7.74773 9.19019 8.24772 9.4759L11.236 11.1835C11.7399 11.4714 11.7399 12.198 11.236 12.4859L8.24772 14.1935C7.74773 14.4792 7.12562 14.1182 7.12562 13.5423V10.1271Z" fill="white"/>
<path d="M16.5 2.99805H1.5C1.08579 2.99805 0.75 3.33383 0.75 3.74805C0.75 4.16226 1.08579 4.49805 1.5 4.49805H16.5C16.9142 4.49805 17.25 4.16226 17.25 3.74805C17.25 3.33383 16.9142 2.99805 16.5 2.99805Z" fill="white"/>
<path d="M15.75 0H2.25C1.83579 0 1.5 0.335786 1.5 0.75C1.5 1.16421 1.83579 1.5 2.25 1.5H15.75C16.1642 1.5 16.5 1.16421 16.5 0.75C16.5 0.335786 16.1642 0 15.75 0Z" fill="white"/>
</g>
<defs>
<clipPath id="clip0_1499_315">
<rect width="18" height="18" fill="white"/>
</clipPath>
</defs>
</svg>
