<svg width="18" height="14" viewBox="0 0 18 14" fill="none" xmlns="http://www.w3.org/2000/svg">
<path fill-rule="evenodd" clip-rule="evenodd" d="M8.38264 0.0723888C8.75632 0.219514 8.99995 0.56613 8.99995 0.950603V12.3575C8.99995 12.742 8.75632 13.0886 8.38264 13.2357C8.00897 13.3829 7.57885 13.3015 7.29286 13.0297L3.58577 9.50577H0.999994C0.447709 9.50577 0 9.08015 0 8.55522V4.75291C0 4.22792 0.447709 3.80233 0.999994 3.80233H3.58577L7.29286 0.27845C7.57885 0.00658503 8.00897 -0.0747487 8.38264 0.0723888Z" fill="white"/>
<path fill-rule="evenodd" clip-rule="evenodd" d="M11.3101 4.29289C11.7236 3.90237 12.394 3.90237 12.8076 4.29289L14.1765 5.58577L15.5454 4.29289C15.9589 3.90237 16.6292 3.90237 17.0428 4.29289C17.4563 4.68342 17.4563 5.31658 17.0428 5.7071L15.6739 6.99998L17.0428 8.29287C17.4563 8.6834 17.4563 9.31656 17.0428 9.70709C16.6292 10.0976 15.9589 10.0976 15.5454 9.70709L14.1765 8.41419L12.8076 9.70709C12.394 10.0976 11.7236 10.0976 11.3101 9.70709C10.8966 9.31656 10.8966 8.6834 11.3101 8.29287L12.679 6.99998L11.3101 5.7071C10.8966 5.31658 10.8966 4.68342 11.3101 4.29289Z" fill="white"/>
</svg>
