<svg width="70" height="70" viewBox="0 0 70 70" fill="none" xmlns="http://www.w3.org/2000/svg">
<rect width="70" height="70" rx="16" fill="#151616"/>
<path d="M48.8556 31.7085C47.9365 28.8256 46.1295 26.307 43.693 24.5128C41.2563 22.7187 38.3149 21.7408 35.2891 21.719C32.7309 21.7044 30.217 22.3872 28.0179 23.694C25.8185 25.0008 24.0169 26.8823 22.8066 29.136C20.5819 29.5342 18.5425 30.6323 16.9851 32.27C15.4277 33.9078 14.4337 35.9998 14.1478 38.2417C13.8619 40.4836 14.299 42.7581 15.3955 44.7344C16.492 46.7106 18.1906 48.2853 20.2441 49.2292L20.512 49.3532H20.5269V46.3342C19.1169 45.469 18.013 44.1842 17.3699 42.6601C16.7269 41.1359 16.5768 39.4486 16.9409 37.835C17.3049 36.2212 18.1648 34.7619 19.4 33.6614C20.6351 32.5609 22.1837 31.8746 23.8286 31.6985L24.5728 31.6216L24.8977 30.9419C25.8275 28.9763 27.2995 27.3173 29.1404 26.1601C30.9814 25.003 33.1148 24.3959 35.2891 24.4105C37.88 24.4282 40.3908 25.3116 42.422 26.9203C44.4532 28.529 45.8883 30.7706 46.499 33.2886L46.747 34.3081L47.7964 34.3255C49.5145 34.3617 51.1504 35.0677 52.3552 36.293C53.5602 37.5183 54.2387 39.1658 54.246 40.8843C54.246 43.3922 52.7998 45.4387 50.3465 46.4781V49.3433L50.5226 49.2837C54.4792 47.9913 56.9375 44.7714 56.9375 40.8843C56.9269 38.6363 56.1024 36.4684 54.6166 34.7814C53.1308 33.0946 51.0843 32.0028 48.8556 31.7085Z" fill="#3448C5"/>
<path d="M30.0796 49.006L30.6699 49.5963C30.687 49.6127 30.6988 49.6338 30.7036 49.6569C30.7085 49.68 30.7062 49.7041 30.697 49.7258C30.6878 49.7477 30.6723 49.7661 30.6524 49.779C30.6325 49.7917 30.6093 49.7981 30.5855 49.7973H25.9319C25.6538 49.7976 25.3784 49.7431 25.1214 49.6369C24.8644 49.5307 24.6309 49.3749 24.4341 49.1784C24.2374 48.9819 24.0813 48.7484 23.9748 48.4916C23.8683 48.2347 23.8135 47.9594 23.8135 47.6813V38.6221C23.8135 38.5912 23.8012 38.5615 23.7793 38.5396C23.7575 38.5177 23.7278 38.5054 23.6969 38.5054H22.6873C22.6642 38.505 22.6417 38.4979 22.6226 38.4849C22.6035 38.4721 22.5885 38.4538 22.5796 38.4325C22.5707 38.4113 22.5681 38.3878 22.5722 38.365C22.5764 38.3424 22.5871 38.3212 22.6029 38.3045L26.5545 34.3554C26.5652 34.3441 26.5781 34.3351 26.5923 34.3288C26.6067 34.3227 26.622 34.3195 26.6377 34.3195C26.6533 34.3195 26.6686 34.3227 26.683 34.3288C26.6972 34.3351 26.7101 34.3441 26.7208 34.3554L30.6699 38.3045C30.687 38.3208 30.6988 38.3419 30.7036 38.365C30.7085 38.3881 30.7062 38.4123 30.697 38.4341C30.6878 38.4558 30.6723 38.4744 30.6524 38.4871C30.6325 38.4999 30.6093 38.5062 30.5855 38.5054H29.576C29.545 38.5054 29.5153 38.5177 29.4936 38.5396C29.4717 38.5615 29.4594 38.5912 29.4594 38.6221V47.5176C29.4616 48.0761 29.6845 48.6111 30.0796 49.006Z" fill="#3448C5"/>
<path d="M38.8119 49.0058L39.4022 49.5963C39.4193 49.6125 39.4311 49.6336 39.4359 49.6567C39.4408 49.6799 39.4385 49.7039 39.4293 49.7258C39.4201 49.7476 39.4046 49.7661 39.3847 49.7788C39.3648 49.7915 39.3415 49.7979 39.3178 49.7972H34.6542C34.3762 49.7975 34.1008 49.743 33.8437 49.6368C33.5868 49.5306 33.3533 49.3748 33.1565 49.1782C32.9597 48.9818 32.8036 48.7484 32.6971 48.4915C32.5907 48.2347 32.5359 47.9592 32.5359 47.6811V40.8991C32.5362 40.8836 32.5334 40.8681 32.5276 40.8537C32.522 40.8394 32.5134 40.8262 32.5025 40.8152C32.4916 40.804 32.4788 40.7953 32.4644 40.7891C32.4501 40.7832 32.4348 40.7801 32.4192 40.7801H31.4294C31.4064 40.7796 31.3839 40.7726 31.3648 40.7596C31.3457 40.7467 31.3308 40.7283 31.3218 40.7071C31.3129 40.6858 31.3103 40.6623 31.3144 40.6397C31.3186 40.617 31.3293 40.5959 31.3452 40.5792L35.2868 36.6299C35.2975 36.6186 35.3104 36.6096 35.3246 36.6035C35.339 36.5973 35.3543 36.5941 35.3699 36.5941C35.3855 36.5941 35.4009 36.5973 35.4153 36.6035C35.4295 36.6096 35.4424 36.6186 35.4531 36.6299L39.4022 40.5717C39.4193 40.5881 39.4311 40.6091 39.4359 40.6323C39.4408 40.6554 39.4385 40.6795 39.4293 40.7012C39.4201 40.723 39.4046 40.7415 39.3847 40.7542C39.3648 40.7671 39.3415 40.7734 39.3178 40.7726H38.3082C38.2928 40.7726 38.2773 40.7757 38.2631 40.7818C38.2487 40.7878 38.2358 40.7966 38.2249 40.8077C38.2141 40.8187 38.2055 40.8319 38.1998 40.8464C38.1942 40.8608 38.1913 40.8763 38.1917 40.8917V47.5174C38.1939 48.076 38.4168 48.6111 38.8119 49.0058Z" fill="#3448C5"/>
<path d="M47.5533 49.0057L48.1437 49.5962C48.1607 49.6123 48.1724 49.6332 48.1773 49.6561C48.1822 49.679 48.18 49.7028 48.1712 49.7245C48.1624 49.7462 48.1473 49.7646 48.1277 49.7776C48.1082 49.7907 48.0853 49.7974 48.0618 49.7971H43.3958C42.8344 49.7971 42.2959 49.5743 41.8987 49.1775C41.5015 48.7808 41.2781 48.2426 41.2773 47.681V43.1738C41.2773 43.1429 41.2651 43.1132 41.2432 43.0914C41.2214 43.0695 41.1917 43.0573 41.1608 43.0573H40.1512C40.1278 43.0574 40.1048 43.0507 40.0852 43.0378C40.0658 43.0248 40.0506 43.0063 40.0418 42.9847C40.033 42.963 40.0309 42.9391 40.0358 42.9163C40.0407 42.8933 40.0523 42.8725 40.0693 42.8562L44.0184 38.9047C44.0408 38.8829 44.0705 38.8708 44.1016 38.8708C44.1326 38.8708 44.1625 38.8829 44.1847 38.9047L48.1338 42.8562C48.1493 42.8729 48.1595 42.8936 48.1633 42.9158C48.1672 42.9382 48.1644 42.961 48.1555 42.9818C48.1467 43.0026 48.1318 43.0202 48.113 43.0328C48.0941 43.0453 48.0721 43.0521 48.0494 43.0522H47.0374C47.0065 43.0522 46.9768 43.0645 46.9549 43.0864C46.9331 43.1083 46.9207 43.138 46.9207 43.1689V47.5174C46.9263 48.0776 47.1538 48.613 47.5533 49.0057Z" fill="#3448C5"/>
</svg>
