<svg width="80" height="80" viewBox="0 0 80 80" fill="none" xmlns="http://www.w3.org/2000/svg">
<g clip-path="url(#clip0_668_72)">
<path d="M14.1667 6.44812e-06H65.8333C67.6942 -0.00179242 69.5372 0.372807 71.2567 1.10237C72.9763 1.83193 74.5387 2.90212 75.8546 4.25171C77.1704 5.60129 78.2139 7.20377 78.9252 8.96743C79.6365 10.7311 80.0017 12.6213 80 14.5299V65.4701C80.0017 67.3787 79.6365 69.2689 78.9252 71.0326C78.2139 72.7962 77.1704 74.3987 75.8546 75.7483C74.5387 77.0979 72.9763 78.1681 71.2567 78.8976C69.5372 79.6272 67.6942 80.0018 65.8333 80H14.1667C12.3058 80.0018 10.4628 79.6272 8.74325 78.8976C7.02368 78.1681 5.46126 77.0979 4.14541 75.7483C2.82957 74.3987 1.78613 72.7962 1.07481 71.0326C0.363487 69.2689 -0.00174761 67.3787 6.28692e-06 65.4701V14.5299C-0.00174761 12.6213 0.363487 10.7311 1.07481 8.96743C1.78613 7.20377 2.82957 5.60129 4.14541 4.25171C5.46126 2.90212 7.02368 1.83193 8.74325 1.10237C10.4628 0.372807 12.3058 -0.00179242 14.1667 6.44812e-06V6.44812e-06Z" fill="#000B1D"/>
<g clip-path="url(#clip1_668_72)">
<path d="M61.92 43.6395C59.8001 43.6507 57.9577 44.166 56.4149 44.9278C55.8489 43.7963 55.2828 42.788 55.1829 42.0486C55.0719 41.186 54.9388 40.6594 55.0719 39.6287C55.2051 38.5981 55.8045 37.1304 55.7934 37.0184C55.7823 36.9064 55.6602 36.3798 54.4393 36.3686C53.2184 36.3574 52.164 36.6039 52.0419 36.9288C51.9198 37.2537 51.6868 37.9931 51.5314 38.7549C51.3205 39.8752 49.0896 43.8747 47.8132 45.9697C47.4026 45.1519 47.0474 44.4349 46.9697 43.8635C46.8587 43.0009 46.7255 42.4743 46.8587 41.4436C46.9919 40.413 47.5913 38.9453 47.5802 38.8333C47.5691 38.7213 47.447 38.1947 46.2261 38.1835C45.0052 38.1723 43.9508 38.4188 43.8287 38.7437C43.7066 39.0686 43.5734 39.8304 43.3182 40.5698C43.0629 41.3092 40.0995 47.9863 39.3225 49.7115C38.923 50.5966 38.5789 51.3024 38.3347 51.7841C38.3347 51.7841 38.3236 51.8177 38.2903 51.8737C38.0795 52.2883 37.9574 52.5123 37.9574 52.5123C37.9574 52.5123 37.9574 52.5123 37.9574 52.5235C37.7909 52.826 37.6133 53.1061 37.5245 53.1061C37.4579 53.1061 37.3358 52.2995 37.5467 51.2016C37.9907 48.8825 39.0451 45.2751 39.034 45.1519C39.034 45.0847 39.2338 44.4573 38.3458 44.1324C37.4801 43.8075 37.1694 44.3453 37.0917 44.3453C37.014 44.3453 36.9585 44.5357 36.9585 44.5357C36.9585 44.5357 37.9241 40.4802 35.1161 40.4802C33.3624 40.4802 30.9429 42.4183 29.7442 44.166C28.9894 44.5805 27.3801 45.4656 25.6598 46.4178C25.0049 46.7875 24.3279 47.1572 23.6952 47.5045C23.6508 47.4597 23.6065 47.4037 23.5621 47.3589C20.1658 43.6955 13.8838 41.1076 14.1502 36.1894C14.25 34.3969 14.8605 29.6916 26.2147 23.978C35.56 19.3287 42.9963 20.617 44.2838 23.4738C46.1262 27.5518 40.2993 35.1251 30.6432 36.223C26.9583 36.6375 25.0271 35.2035 24.5388 34.6658C24.0282 34.1056 23.9505 34.072 23.7618 34.184C23.4511 34.3521 23.6508 34.8562 23.7618 35.1475C24.0504 35.9093 25.238 37.2537 27.2469 37.9147C29.0227 38.4972 33.3402 38.8221 38.5678 36.7831C44.417 34.4977 48.9897 28.1455 47.6468 22.8241C46.3038 17.4242 37.4246 15.6429 29.0227 18.6565C24.0282 20.449 18.6119 23.2722 14.7162 26.9468C10.0879 31.316 9.35541 35.1139 9.65508 36.7047C10.7317 42.3511 18.4454 46.0257 21.531 48.7481C21.3756 48.8377 21.2313 48.9161 21.1092 48.9833C19.5664 49.7564 13.684 52.8596 12.2189 56.1421C10.5541 59.8616 12.4853 62.5279 13.7617 62.8864C17.724 63.9955 21.7973 62.0014 23.9838 58.7076C26.1703 55.4139 25.9039 51.1343 24.8939 49.1738C24.8828 49.1514 24.8717 49.129 24.8495 49.1066C25.2491 48.8713 25.6598 48.6248 26.0593 48.3896C26.8473 47.919 27.6243 47.4821 28.2902 47.1236C27.9128 48.1655 27.6354 49.4091 27.5022 51.2016C27.3357 53.3077 28.1903 56.0413 29.3113 57.1168C29.8108 57.5873 30.399 57.5985 30.7764 57.5985C32.086 57.5985 32.6743 56.5006 33.3291 55.2011C34.1282 53.6102 34.8497 51.7617 34.8497 51.7617C34.8497 51.7617 33.9507 56.7583 36.3924 56.7583C37.2803 56.7583 38.1794 55.5932 38.5789 54.9994C38.5789 55.0106 38.5789 55.0106 38.5789 55.0106C38.5789 55.0106 38.6011 54.977 38.6455 54.8986C38.7343 54.7529 38.7898 54.6633 38.7898 54.6633C38.7898 54.6633 38.7898 54.6521 38.7898 54.6409C39.145 54.0135 39.9441 52.5907 41.1317 50.2269C42.6633 47.1796 44.1395 43.3706 44.1395 43.3706C44.1395 43.3706 44.2727 44.3004 44.7277 45.8465C44.9941 46.7539 45.5491 47.751 45.993 48.7145C45.6378 49.2186 45.4159 49.4987 45.4159 49.4987C45.4159 49.4987 45.4159 49.4987 45.427 49.5099C45.1384 49.8908 44.8276 50.3053 44.4836 50.7086C43.2738 52.165 41.8309 53.8343 41.6311 54.316C41.3981 54.8874 41.4535 55.3019 41.8975 55.638C42.2194 55.8845 42.7965 55.9181 43.3848 55.8845C44.4725 55.806 45.2383 55.5372 45.6156 55.3691C46.2039 55.1563 46.892 54.8314 47.5358 54.3496C48.7234 53.4646 49.4448 52.1986 49.3782 50.5294C49.3449 49.6107 49.0452 48.6921 48.679 47.8294C48.7899 47.6726 48.8898 47.5157 49.0008 47.3589C50.8765 44.5917 52.3305 41.5557 52.3305 41.5557C52.3305 41.5557 52.4637 42.4855 52.9188 44.0316C53.1407 44.8158 53.5958 45.6672 53.9953 46.4962C52.2306 47.9415 51.1429 49.6219 50.7545 50.7198C50.0552 52.7588 50.5991 53.6774 51.6313 53.8903C52.0974 53.9911 52.7634 53.7671 53.2517 53.5542C53.8733 53.3526 54.6058 53.0053 55.305 52.4899C56.4926 51.6049 57.6358 50.3725 57.5692 48.7033C57.5359 47.9415 57.3361 47.1908 57.0587 46.4626C58.557 45.8353 60.4882 45.488 62.9522 45.7793C68.2353 46.4066 69.2786 49.7339 69.0788 51.1343C68.879 52.5347 67.7691 53.2965 67.4029 53.5318C67.0366 53.7671 66.9145 53.8455 66.9478 54.0135C66.9922 54.26 67.1698 54.2488 67.4806 54.204C67.9134 54.1256 70.2553 53.0725 70.3552 50.4958C70.5217 47.202 67.414 43.6058 61.92 43.6395ZM21.1647 57.5089C19.4111 59.4358 16.9693 60.1641 15.9149 59.5479C14.7828 58.8869 15.2268 56.0413 17.3799 54.0023C18.6896 52.7588 20.3767 51.6049 21.4977 50.8991C21.7529 50.7422 22.1303 50.5182 22.5853 50.2381C22.663 50.1933 22.7074 50.1709 22.7074 50.1709C22.7962 50.1149 22.885 50.0588 22.9738 50.0028C23.7618 52.9156 23.0071 55.4811 21.1647 57.5089ZM33.9285 48.7481C33.318 50.2493 32.0416 54.092 31.2647 53.8791C30.5988 53.6999 30.1881 50.787 31.1315 47.9078C31.6088 46.4626 32.6188 44.7374 33.207 44.0652C34.1615 42.9897 35.2159 42.6312 35.4712 43.0681C35.7931 43.6395 34.3058 47.807 33.9285 48.7481ZM44.4614 53.8343C44.2061 53.9687 43.9619 54.0584 43.8509 53.9911C43.7732 53.9463 43.9619 53.7671 43.9619 53.7671C43.9619 53.7671 45.2827 52.3331 45.8043 51.6833C46.104 51.3024 46.4592 50.8543 46.8365 50.3501C46.8365 50.3949 46.8365 50.4509 46.8365 50.4958C46.8365 52.2098 45.1939 53.3638 44.4614 53.8343ZM52.5858 51.9634C52.3971 51.8289 52.4304 51.3808 53.063 49.9804C53.3072 49.4315 53.8844 48.5128 54.8722 47.6278C54.9832 47.9863 55.0608 48.3336 55.0497 48.6584C55.0386 50.8206 53.507 51.6273 52.5858 51.9634Z" fill="#CD6799"/>
</g>
</g>
<defs>
<clipPath id="clip0_668_72">
<rect width="80" height="80" fill="white"/>
</clipPath>
<clipPath id="clip1_668_72">
<rect width="60.8" height="46" fill="white" transform="translate(9.59961 17.2)"/>
</clipPath>
</defs>
</svg>
