<svg width="70" height="70" viewBox="0 0 70 70" fill="none" xmlns="http://www.w3.org/2000/svg">
<path d="M12.3958 5.64211e-06L57.6042 5.64211e-06C59.2324 -0.00156837 60.845 0.326206 62.3497 0.964571C63.8543 1.60293 65.2214 2.53936 66.3728 3.72024C67.5241 4.90113 68.4371 6.3033 69.0595 7.84651C69.682 9.38971 70.0015 11.0437 70 12.7137V57.2863C70.0015 58.9563 69.682 60.6103 69.0595 62.1535C68.4371 63.6967 67.5241 65.0989 66.3728 66.2798C65.2214 67.4606 63.8543 68.3971 62.3497 69.0354C60.845 69.6738 59.2324 70.0016 57.6042 70H12.3958C10.7676 70.0016 9.15497 69.6738 7.65034 69.0354C6.14572 68.3971 4.7786 67.4606 3.62724 66.2798C2.47587 65.0989 1.56286 63.6967 0.940456 62.1535C0.318051 60.6103 -0.00152916 58.9563 5.50105e-06 57.2863L5.50105e-06 12.7137C-0.00152916 11.0437 0.318051 9.38971 0.940456 7.84651C1.56286 6.3033 2.47587 4.90113 3.62724 3.72024C4.7786 2.53936 6.14572 1.60293 7.65034 0.964571C9.15497 0.326206 10.7676 -0.00156837 12.3958 5.64211e-06V5.64211e-06Z" fill="#000B1D"/>
<path d="M12.3958 5.64211e-06L57.6042 5.64211e-06C59.2324 -0.00156837 60.845 0.326206 62.3497 0.964571C63.8543 1.60293 65.2214 2.53936 66.3728 3.72024C67.5241 4.90113 68.4371 6.3033 69.0595 7.84651C69.682 9.38971 70.0015 11.0437 70 12.7137V57.2863C70.0015 58.9563 69.682 60.6103 69.0595 62.1535C68.4371 63.6967 67.5241 65.0989 66.3728 66.2798C65.2214 67.4606 63.8543 68.3971 62.3497 69.0354C60.845 69.6738 59.2324 70.0016 57.6042 70H12.3958C10.7676 70.0016 9.15497 69.6738 7.65034 69.0354C6.14572 68.3971 4.7786 67.4606 3.62724 66.2798C2.47587 65.0989 1.56286 63.6967 0.940456 62.1535C0.318051 60.6103 -0.00152916 58.9563 5.50105e-06 57.2863L5.50105e-06 12.7137C-0.00152916 11.0437 0.318051 9.38971 0.940456 7.84651C1.56286 6.3033 2.47587 4.90113 3.62724 3.72024C4.7786 2.53936 6.14572 1.60293 7.65034 0.964571C9.15497 0.326206 10.7676 -0.00156837 12.3958 5.64211e-06V5.64211e-06Z" fill="#000B1D"/>
<path d="M57.5572 15.9664L47.5536 11.1499C46.3957 10.5924 45.0119 10.8275 44.1032 11.7363L11.3553 41.5947C10.4745 42.3977 10.4755 43.7845 11.3575 44.5863L14.0324 47.0181C14.7535 47.6736 15.8395 47.7219 16.6158 47.1329L56.0518 17.2159C57.3749 16.2123 59.2752 17.1559 59.2752 18.8165V18.7004C59.2752 17.5347 58.6074 16.4721 57.5572 15.9664Z" fill="#0065A9"/>
<g filter="url(#filter0_d_1467_101)">
<path d="M57.5572 54.0335L47.5536 58.85C46.3957 59.4076 45.0119 59.1724 44.1032 58.2636L11.3553 28.4053C10.4745 27.6022 10.4755 26.2154 11.3575 25.4136L14.0324 22.9818C14.7535 22.3263 15.8395 22.278 16.6158 22.867L56.0518 52.784C57.3749 53.7876 59.2752 52.844 59.2752 51.1834V51.2995C59.2752 52.4652 58.6074 53.5278 57.5572 54.0335Z" fill="#007ACC"/>
</g>
<g filter="url(#filter1_d_1467_101)">
<path d="M47.5544 58.851C46.3961 59.4082 45.0123 59.1725 44.1035 58.2637C45.2233 59.3834 47.1379 58.5904 47.1379 57.0068V12.9932C47.1379 11.4096 45.2233 10.6165 44.1035 11.7363C45.0123 10.8275 46.3961 10.592 47.5544 11.149L57.5562 15.9589C58.6072 16.4643 59.2755 17.5273 59.2755 18.6935V51.3066C59.2755 52.4728 58.6072 53.5358 57.5561 54.0412L47.5544 58.851Z" fill="#1F9CF0"/>
</g>
<g style="mix-blend-mode:overlay" opacity="0.25">
<path style="mix-blend-mode:overlay" fill-rule="evenodd" clip-rule="evenodd" d="M45.1233 58.9436C45.8879 59.2415 46.7599 59.2224 47.5316 58.8511L57.5273 54.0413C58.5777 53.5359 59.2456 52.4729 59.2456 51.3067V18.6936C59.2456 17.5274 58.5777 16.4643 57.5274 15.9589L47.5316 11.149C46.5188 10.6617 45.3333 10.781 44.4443 11.4273C44.3174 11.5197 44.1964 11.6227 44.0829 11.7363L24.9473 29.1941L16.6122 22.8671C15.8363 22.2781 14.751 22.3264 14.0304 22.9819L11.3571 25.4137C10.4756 26.2155 10.4746 27.6023 11.3549 28.4054L18.5833 35L11.3549 41.5947C10.4746 42.3978 10.4756 43.7846 11.3571 44.5864L14.0304 47.0182C14.751 47.6737 15.8363 47.722 16.6122 47.133L24.9473 40.806L44.0829 58.2637C44.3856 58.5666 44.741 58.7947 45.1233 58.9436ZM47.1154 23.9786L32.5959 35L47.1154 46.0215V23.9786Z" fill="url(#paint0_linear_1467_101)"/>
</g>
<defs>
<filter id="filter0_d_1467_101" x="2.36197" y="14.1223" width="65.2468" height="53.3606" filterUnits="userSpaceOnUse" color-interpolation-filters="sRGB">
<feFlood flood-opacity="0" result="BackgroundImageFix"/>
<feColorMatrix in="SourceAlpha" type="matrix" values="0 0 0 0 0 0 0 0 0 0 0 0 0 0 0 0 0 0 127 0" result="hardAlpha"/>
<feOffset/>
<feGaussianBlur stdDeviation="4.16667"/>
<feColorMatrix type="matrix" values="0 0 0 0 0 0 0 0 0 0 0 0 0 0 0 0 0 0 0.25 0"/>
<feBlend mode="overlay" in2="BackgroundImageFix" result="effect1_dropShadow_1467_101"/>
<feBlend mode="normal" in="SourceGraphic" in2="effect1_dropShadow_1467_101" result="shape"/>
</filter>
<filter id="filter1_d_1467_101" x="35.7702" y="2.51664" width="31.8386" height="64.9667" filterUnits="userSpaceOnUse" color-interpolation-filters="sRGB">
<feFlood flood-opacity="0" result="BackgroundImageFix"/>
<feColorMatrix in="SourceAlpha" type="matrix" values="0 0 0 0 0 0 0 0 0 0 0 0 0 0 0 0 0 0 127 0" result="hardAlpha"/>
<feOffset/>
<feGaussianBlur stdDeviation="4.16667"/>
<feColorMatrix type="matrix" values="0 0 0 0 0 0 0 0 0 0 0 0 0 0 0 0 0 0 0.25 0"/>
<feBlend mode="overlay" in2="BackgroundImageFix" result="effect1_dropShadow_1467_101"/>
<feBlend mode="normal" in="SourceGraphic" in2="effect1_dropShadow_1467_101" result="shape"/>
</filter>
<linearGradient id="paint0_linear_1467_101" x1="34.9705" y1="10.85" x2="34.9705" y2="59.1501" gradientUnits="userSpaceOnUse">
<stop stop-color="white"/>
<stop offset="1" stop-color="white" stop-opacity="0"/>
</linearGradient>
</defs>
</svg>
