<svg width="81" height="81" viewBox="0 0 81 81" fill="none" xmlns="http://www.w3.org/2000/svg">
<path d="M14.735 0.568488L66.4017 0.568488C68.2626 0.566689 70.1055 0.941289 71.8251 1.67085C73.5447 2.40041 75.1071 3.4706 76.4229 4.82019C77.7388 6.16977 78.7822 7.77225 79.4936 9.53592C80.2049 11.2996 80.5701 13.1898 80.5684 15.0984V66.0386C80.5701 67.9472 80.2049 69.8374 79.4936 71.601C78.7822 73.3647 77.7388 74.9672 76.4229 76.3168C75.1071 77.6664 73.5447 78.7366 71.8251 79.4661C70.1055 80.1957 68.2626 80.5703 66.4017 80.5685H14.735C12.8741 80.5703 11.0312 80.1957 9.31161 79.4661C7.59204 78.7366 6.02962 77.6664 4.71377 76.3168C3.39793 74.9672 2.35449 73.3647 1.64317 71.601C0.931846 69.8374 0.566612 67.9472 0.568366 66.0386L0.568366 15.0984C0.566612 13.1898 0.931846 11.2996 1.64317 9.53592C2.35449 7.77225 3.39793 6.16977 4.71377 4.82019C6.02962 3.4706 7.59204 2.40041 9.31161 1.67085C11.0312 0.941289 12.8741 0.566689 14.735 0.568488V0.568488Z" fill="#000B1D"/>
<path d="M66.3484 18.8158L54.9157 13.3113C53.5924 12.6741 52.0109 12.9429 50.9724 13.9814L13.5462 48.1053C12.5396 49.0231 12.5407 50.608 13.5487 51.5243L16.6058 54.3035C17.4299 55.0527 18.671 55.1079 19.5583 54.4347L64.628 20.2439C66.1401 19.0968 68.3118 20.1753 68.3118 22.0732V21.9404C68.3118 20.6082 67.5487 19.3938 66.3484 18.8158Z" fill="#0065A9"/>
<g filter="url(#filter0_d_668_111)">
<path d="M66.3484 62.3211L54.9157 67.8257C53.5924 68.463 52.0109 68.1941 50.9724 67.1556L13.5462 33.0317C12.5396 32.1139 12.5407 30.529 13.5487 29.6126L16.6058 26.8334C17.4299 26.0843 18.671 26.0291 19.5583 26.7022L64.628 60.8931C66.1401 62.0401 68.3118 60.9617 68.3118 59.0639V59.1966C68.3118 60.5287 67.5487 61.7432 66.3484 62.3211Z" fill="#007ACC"/>
</g>
<g filter="url(#filter1_d_668_111)">
<path d="M54.9165 67.8268C53.5928 68.4636 52.0113 68.1942 50.9727 67.1556C52.2524 68.4353 54.4405 67.5289 54.4405 65.7192V15.4179C54.4405 13.6081 52.2524 12.7017 50.9727 13.9814C52.0113 12.9428 53.5928 12.6736 54.9165 13.3102L66.3471 18.8073C67.5482 19.3849 68.3121 20.5998 68.3121 21.9325V59.2047C68.3121 60.5375 67.5482 61.7523 66.3471 62.3299L54.9165 67.8268Z" fill="#1F9CF0"/>
</g>
<g style="mix-blend-mode:overlay" opacity="0.25">
<path style="mix-blend-mode:overlay" fill-rule="evenodd" clip-rule="evenodd" d="M52.1382 67.9327C53.0121 68.2732 54.0087 68.2513 54.8907 67.8269L66.3143 62.3301C67.5147 61.7525 68.2781 60.5376 68.2781 59.2048V21.9327C68.2781 20.5998 67.5148 19.385 66.3144 18.8074L54.8907 13.3104C53.7331 12.7533 52.3783 12.8898 51.3623 13.6284C51.2172 13.7339 51.0789 13.8517 50.9492 13.9815L29.08 33.9333L19.5542 26.7024C18.6675 26.0293 17.4271 26.0845 16.6035 26.8336L13.5483 29.6128C12.5409 30.5292 12.5397 32.114 13.5458 33.0319L21.8069 40.5686L13.5458 48.1054C12.5397 49.0233 12.5409 50.6081 13.5483 51.5245L16.6035 54.3036C17.4271 55.0528 18.6675 55.108 19.5542 54.4349L29.08 47.204L50.9492 67.1557C51.2952 67.5018 51.7014 67.7626 52.1382 67.9327ZM54.415 27.9727L37.8213 40.5686L54.415 53.1646V27.9727Z" fill="url(#paint0_linear_668_111)"/>
</g>
<defs>
<filter id="filter0_d_668_111" x="4.45865" y="17.8988" width="72.1862" height="58.6025" filterUnits="userSpaceOnUse" color-interpolation-filters="sRGB">
<feFlood flood-opacity="0" result="BackgroundImageFix"/>
<feColorMatrix in="SourceAlpha" type="matrix" values="0 0 0 0 0 0 0 0 0 0 0 0 0 0 0 0 0 0 127 0" result="hardAlpha"/>
<feOffset/>
<feGaussianBlur stdDeviation="4.16667"/>
<feColorMatrix type="matrix" values="0 0 0 0 0 0 0 0 0 0 0 0 0 0 0 0 0 0 0.25 0"/>
<feBlend mode="overlay" in2="BackgroundImageFix" result="effect1_dropShadow_668_111"/>
<feBlend mode="normal" in="SourceGraphic" in2="effect1_dropShadow_668_111" result="shape"/>
</filter>
<filter id="filter1_d_668_111" x="42.6393" y="4.63517" width="34.0065" height="71.8668" filterUnits="userSpaceOnUse" color-interpolation-filters="sRGB">
<feFlood flood-opacity="0" result="BackgroundImageFix"/>
<feColorMatrix in="SourceAlpha" type="matrix" values="0 0 0 0 0 0 0 0 0 0 0 0 0 0 0 0 0 0 127 0" result="hardAlpha"/>
<feOffset/>
<feGaussianBlur stdDeviation="4.16667"/>
<feColorMatrix type="matrix" values="0 0 0 0 0 0 0 0 0 0 0 0 0 0 0 0 0 0 0.25 0"/>
<feBlend mode="overlay" in2="BackgroundImageFix" result="effect1_dropShadow_668_111"/>
<feBlend mode="normal" in="SourceGraphic" in2="effect1_dropShadow_668_111" result="shape"/>
</filter>
<linearGradient id="paint0_linear_668_111" x1="40.535" y1="12.9686" x2="40.535" y2="68.1687" gradientUnits="userSpaceOnUse">
<stop stop-color="white"/>
<stop offset="1" stop-color="white" stop-opacity="0"/>
</linearGradient>
</defs>
</svg>
