<svg width="70" height="70" viewBox="0 0 70 70" fill="none" xmlns="http://www.w3.org/2000/svg">
<rect width="70" height="70" rx="16" fill="white"/>
<g clip-path="url(#clip0_2351_231)">
<path d="M38.0569 11.1955C33.3487 10.5909 28.5669 11.396 24.3163 13.5091C20.0657 15.6222 16.5372 18.9483 14.1769 23.0669C11.8167 27.1854 10.7308 31.9113 11.0566 36.647C11.3823 41.3826 13.1051 45.9155 16.007 49.6719C18.9089 53.4285 22.8597 56.2402 27.3596 57.7514C31.8594 59.2625 36.7064 59.4053 41.2875 58.1618C45.8685 56.9182 49.9781 54.344 53.0962 50.7648C56.2142 47.1855 58.2008 42.7622 58.8048 38.0539C59.6147 31.741 57.8838 25.3649 53.9928 20.328C50.102 15.2912 44.3698 12.0062 38.0569 11.1955Z" fill="#FF6C37"/>
<path d="M28.3521 36.5168C28.3614 36.5358 28.3771 36.551 28.3963 36.5597C28.4155 36.5685 28.4373 36.5703 28.4577 36.5648L32.2977 35.7368L30.6825 34.1L28.3809 36.4016C28.3627 36.4139 28.3498 36.4323 28.3444 36.4536C28.3392 36.4749 28.3419 36.4974 28.3521 36.5168Z" fill="white"/>
<path d="M46.3325 20.0288C45.7974 20.0294 45.2691 20.1499 44.7867 20.3816C44.3045 20.6133 43.8801 20.9503 43.5452 21.3677C43.2104 21.7851 42.9732 22.2722 42.8516 22.7934C42.7299 23.3145 42.7266 23.8562 42.842 24.3788C42.9573 24.9014 43.1885 25.3914 43.5183 25.8128C43.8482 26.2342 44.2683 26.5763 44.7479 26.8138C45.2274 27.0514 45.7541 27.1783 46.2891 27.1853C46.8242 27.1924 47.3541 27.0793 47.8397 26.8544L45.4061 24.4208C45.3782 24.393 45.356 24.3599 45.3408 24.3234C45.3258 24.287 45.318 24.2479 45.318 24.2084C45.318 24.169 45.3258 24.1299 45.3408 24.0934C45.356 24.057 45.3782 24.0239 45.4061 23.996L48.5861 20.8184C47.9475 20.3049 47.1519 20.0262 46.3325 20.0288Z" fill="white"/>
<path d="M49.0238 21.2312L46.043 24.2L48.3806 26.5376C48.5528 26.4167 48.7134 26.2801 48.8606 26.1296C49.5012 25.4846 49.8741 24.6211 49.9044 23.7125C49.9347 22.8038 49.62 21.9174 49.0238 21.2312Z" fill="white"/>
<path d="M43.0602 26.7104H43.0074C42.9454 26.7099 42.8835 26.7155 42.8226 26.7272H42.801C42.7341 26.7416 42.6684 26.7608 42.6042 26.7848L42.5538 26.8088C42.5055 26.8289 42.459 26.853 42.4146 26.8808L42.3618 26.9144C42.3037 26.9544 42.2491 26.9994 42.1986 27.0488L33.3594 35.8904L34.4538 36.9848L43.8138 28.7696C43.8667 28.7232 43.9149 28.6718 43.9578 28.616L43.9986 28.5632C44.0305 28.5164 44.0595 28.4675 44.085 28.4168C44.0994 28.388 44.1114 28.3592 44.1234 28.3304C44.1396 28.2921 44.1531 28.2528 44.1642 28.2128C44.1642 28.184 44.181 28.1552 44.1882 28.1264C44.2 28.067 44.208 28.0068 44.2122 27.9464V27.8672C44.2122 27.824 44.2122 27.7808 44.2122 27.7376C44.2122 27.6944 44.2122 27.68 44.2002 27.6512C44.1558 27.4247 44.0452 27.2165 43.8825 27.0528C43.7197 26.8892 43.512 26.7776 43.2858 26.732H43.2402C43.1808 26.7206 43.1206 26.7134 43.0602 26.7104Z" fill="white"/>
<path d="M31.0957 33.6752L32.9101 35.48L41.7733 26.6168C42.0618 26.3348 42.4375 26.1596 42.8389 26.12C41.2717 24.92 39.5629 25.2344 31.0957 33.6752Z" fill="white"/>
<path d="M44.3118 29.1152L44.2037 29.2208L34.8438 37.4336L36.435 39.0224C40.3806 35.2904 43.8822 31.736 44.3118 29.1152Z" fill="white"/>
<path d="M20.9651 48.356C20.97 48.3729 20.98 48.3881 20.9937 48.3992C21.0074 48.4104 21.0243 48.417 21.0419 48.4184L25.1219 48.6992L22.8347 46.412L20.9843 48.26C20.9723 48.2724 20.9642 48.2882 20.9607 48.3051C20.9574 48.3222 20.9589 48.3398 20.9651 48.356Z" fill="white"/>
<path d="M23.2617 45.9872L25.6737 48.3992C25.7023 48.4298 25.7406 48.4496 25.7822 48.4553C25.8237 48.461 25.8659 48.4521 25.9017 48.4304C25.9391 48.4118 25.9689 48.3809 25.986 48.3428C26.0031 48.3047 26.0064 48.2618 25.9953 48.2216L25.5897 46.4888C25.5634 46.3764 25.5754 46.2585 25.6236 46.1538C25.6719 46.0491 25.7537 45.9635 25.8561 45.9104C30.0849 43.7912 33.4953 41.6096 35.9985 39.4304L34.3185 37.7504L30.7185 38.5256L23.2617 45.9872Z" fill="white"/>
<path d="M33.803 37.2416L32.9006 36.3392L31.6526 37.5848C31.6436 37.5956 31.6387 37.6093 31.6387 37.6232C31.6387 37.6373 31.6436 37.6508 31.6526 37.6616C31.6585 37.6744 31.6687 37.6847 31.6816 37.6904C31.6943 37.6961 31.7087 37.697 31.7222 37.6928L33.803 37.2416Z" fill="white"/>
<path d="M49.1073 23.1656C49.095 23.1279 49.0747 23.0932 49.0479 23.0639C49.0212 23.0346 48.9883 23.0114 48.9517 22.9958C48.9153 22.9802 48.8758 22.9726 48.8361 22.9736C48.7963 22.9745 48.7573 22.984 48.7215 23.0012C48.6858 23.0185 48.6541 23.0433 48.6286 23.0738C48.6033 23.1043 48.5847 23.1399 48.5742 23.1782C48.5637 23.2165 48.5614 23.2567 48.5677 23.2959C48.574 23.3351 48.5886 23.3725 48.6105 23.4056C48.6822 23.55 48.7107 23.712 48.6924 23.8721C48.6741 24.0322 48.6097 24.1836 48.5073 24.308C48.4737 24.3487 48.4522 24.3981 48.4456 24.4504C48.4389 24.5028 48.4473 24.556 48.4696 24.6037C48.492 24.6515 48.5275 24.692 48.5721 24.7204C48.6165 24.7487 48.6682 24.7639 48.7209 24.764C48.7617 24.7636 48.8019 24.7544 48.8388 24.737C48.8757 24.7196 48.9082 24.6944 48.9345 24.6632C49.1044 24.4567 49.2111 24.2056 49.2417 23.9399C49.2723 23.6743 49.2256 23.4054 49.1073 23.1656Z" fill="#FF6C37"/>
</g>
<defs>
<clipPath id="clip0_2351_231">
<rect width="48" height="48" fill="white" transform="translate(11 11)"/>
</clipPath>
</defs>
</svg>
