<svg width="70" height="70" viewBox="0 0 70 70" fill="none" xmlns="http://www.w3.org/2000/svg">
<rect width="70" height="70" rx="16" fill="#151616"/>
<path d="M27.2917 56.75C31.3187 56.75 34.5833 53.4854 34.5833 49.4583V42.1667H27.2917C23.2646 42.1667 20 45.4313 20 49.4583C20 53.4854 23.2646 56.75 27.2917 56.75Z" fill="#0ACF83"/>
<path d="M20 34.8751C20 30.848 23.2646 27.5834 27.2917 27.5834H34.5833V42.1667H27.2917C23.2646 42.1667 20 38.9021 20 34.8751Z" fill="#A259FF"/>
<path d="M20 20.2916C20 16.2646 23.2646 13 27.2917 13H34.5833V27.5833H27.2917C23.2646 27.5833 20 24.3187 20 20.2916Z" fill="#F24E1E"/>
<path d="M34.583 13H41.8747C45.9018 13 49.1663 16.2646 49.1663 20.2916C49.1663 24.3187 45.9018 27.5833 41.8747 27.5833H34.583V13Z" fill="#FF7262"/>
<path d="M49.1663 34.8751C49.1663 38.9021 45.9018 42.1667 41.8747 42.1667C37.8476 42.1667 34.583 38.9021 34.583 34.8751C34.583 30.848 37.8476 27.5834 41.8747 27.5834C45.9018 27.5834 49.1663 30.848 49.1663 34.8751Z" fill="#1ABCFE"/>
</svg>
