<svg width="19" height="15" viewBox="0 0 19 15" fill="none" xmlns="http://www.w3.org/2000/svg">
<path d="M1.83532 6.72067C3.89042 3.27554 6.74405 1.65643 9.50001 1.65645C12.2559 1.65647 15.1096 3.27563 17.1647 6.72078L18.55 5.85902C16.2611 2.022 12.9294 3.31292e-05 9.50002 1.80937e-10C6.07063 -2.20858e-05 2.73892 2.0219 0.450049 5.85892L1.83532 6.72067ZM0.450049 9.14102C2.73892 12.978 6.07062 15 9.5 15C12.9294 15 16.2611 12.9781 18.55 9.14114L17.1647 8.27934C15.1096 11.7244 12.2559 13.3436 9.50002 13.3436C6.74406 13.3436 3.89042 11.7244 1.83532 8.27923L0.450049 9.14102ZM0.450049 5.85892C-0.150016 6.86486 -0.150016 8.13501 0.450049 9.14102L1.83532 8.27923C1.55098 7.80261 1.55098 7.19736 1.83532 6.72067L0.450049 5.85892ZM17.1647 6.72078C17.449 7.19746 17.449 7.80272 17.1647 8.27934L18.55 9.14114C19.15 8.13512 19.15 6.86497 18.55 5.85902L17.1647 6.72078ZM11.6177 7.50003C11.6177 8.69445 10.6695 9.66259 9.50001 9.66259V11.319C11.5655 11.319 13.2398 9.60925 13.2398 7.50003H11.6177ZM9.50001 9.66259C8.33044 9.66259 7.38232 8.69445 7.38232 7.50003H5.76026C5.76026 9.60925 7.43461 11.319 9.50001 11.319V9.66259ZM7.38232 7.50003C7.38232 6.30568 8.33044 5.33746 9.50001 5.33746V3.68101C7.43461 3.68101 5.76026 5.39085 5.76026 7.50003H7.38232ZM9.50001 5.33746C10.6695 5.33746 11.6177 6.30568 11.6177 7.50003H13.2398C13.2398 5.39085 11.5655 3.68101 9.50001 3.68101V5.33746Z" fill="white"/>
</svg>
